<?xml version="1.0" encoding="UTF-8" standalone="no"?>
<!-- Created with Inkscape (http://www.inkscape.org/) -->

<svg
   width="512"
   viewBox="0 0 512 512"
   version="1.1"
   id="svg5"
   xml:space="preserve"
   inkscape:version="1.2.1 (9c6d41e410, 2022-07-14)"
   sodipodi:docname="favicon.svg"
   height="512"
   xmlns:inkscape="http://www.inkscape.org/namespaces/inkscape"
   xmlns:sodipodi="http://sodipodi.sourceforge.net/DTD/sodipodi-0.dtd"
   xmlns:xlink="http://www.w3.org/1999/xlink"
   xmlns="http://www.w3.org/2000/svg"
   xmlns:svg="http://www.w3.org/2000/svg"><sodipodi:namedview
     id="namedview11"
     pagecolor="#ffffff"
     bordercolor="#000000"
     borderopacity="0.25"
     inkscape:showpageshadow="2"
     inkscape:pageopacity="0.0"
     inkscape:pagecheckerboard="true"
     inkscape:deskcolor="#d1d1d1"
     showgrid="false"
     inkscape:zoom="37.6"
     inkscape:cx="510.29255"
     inkscape:cy="2.9787234"
     inkscape:window-width="1920"
     inkscape:window-height="1046"
     inkscape:window-x="-11"
     inkscape:window-y="-11"
     inkscape:window-maximized="1"
     inkscape:current-layer="svg5" /><defs
     id="defs2"><linearGradient
       inkscape:collect="always"
       id="linearGradient382"><stop
         style="stop-color:#202cf7;stop-opacity:1"
         offset="0"
         id="stop378" /><stop
         style="stop-color:#7cf2d9;stop-opacity:1"
         offset="1"
         id="stop380" /></linearGradient><linearGradient
       id="linearGradient9268"><stop
         style="stop-color:#202cf7;stop-opacity:1"
         offset="0"
         id="stop9264" /><stop
         style="stop-color:#7df5d9;stop-opacity:1"
         offset="1"
         id="stop9266" /></linearGradient><linearGradient
       xlink:href="#linearGradient9268"
       id="linearGradient9270"
       x1="40.277122"
       y1="41.327831"
       x2="90.360855"
       y2="139.74411"
       gradientUnits="userSpaceOnUse"
       gradientTransform="matrix(1.2401018,0,0,1.8513113,-359.93164,-70.370155)" /><linearGradient
       inkscape:collect="always"
       xlink:href="#linearGradient382"
       id="linearGradient384"
       x1="7.7582555"
       y1="50.330322"
       x2="261.97141"
       y2="115.98447"
       gradientUnits="userSpaceOnUse"
       gradientTransform="matrix(2.7221719,0,0,2.4356276,-120.47052,147.17402)" /></defs><rect
     style="fill:url(#linearGradient384);fill-opacity:1;stroke-width:2.57895"
     id="rect316"
     width="512"
     height="512"
     x="0"
     y="0" /><text
     xml:space="preserve"
     style="font-size:139.636px;fill:#ffffff;stroke-width:11.6546"
     x="-501.12656"
     y="577.24231"
     id="text345"><tspan
       sodipodi:role="line"
       id="tspan343"
       x="-501.12656"
       y="577.24231"
       style="stroke-width:11.6546" /></text><path
     style="fill:#ffffff;stroke-width:1.33923"
     d="m 297.62618,143.73404 c -10.1865,-4.55107 -18.02926,-14.96132 -18.02926,-23.93141 0,-9.09394 8.30886,-20.421847 17.83883,-24.32071 6.0406,-2.4713 18.0785,-2.63029 24.48322,-0.32303 9.18447,3.308419 18.27235,15.53725 18.2478,24.55436 -0.0233,9.26754 -8.75648,20.837 -18.33542,24.29412 -6.23527,2.25066 -18.87558,2.10775 -24.20517,-0.27322 z"
     id="path262" /><path
     style="fill:#ffffff;stroke-width:1.33923"
     d="m 211.82385,159.29455 c -16.99176,-1.39657 -52.26365,-6.50618 -71.41242,-10.345 -17.03117,-3.41423 -18.31141,-2.97417 23.79887,-8.18188 44.91012,-5.55401 68.19607,-7.6572 87.52419,-7.9053 15.80145,-0.20177 17.97768,0.0361 21.60286,2.36958 4.79943,3.08928 6.40615,8.52407 4.23356,14.31962 -1.40192,3.73945 -2.63907,4.51953 -10.99013,6.92726 -11.35317,3.27356 -34.62711,4.47041 -54.75693,2.81585 z"
     id="path260" /><path
     style="fill:#ffffff;stroke-width:1.33923"
     d="m 459.13753,238.45565 c -8.53818,-2.30305 -13.35796,-5.44178 -17.33131,-11.2873 -7.26587,-10.68935 -5.95829,-23.08503 3.37629,-32.00373 6.49495,-6.20559 12.3079,-8.44396 21.92896,-8.44396 13.6697,0 25.60919,8.30062 28.88774,20.08349 5.28896,19.00653 -15.99302,37.28029 -36.86168,31.6515 z"
     id="path232"
     inkscape:transform-center-x="-33.047752"
     inkscape:transform-center-y="-720.10185" /><path
     style="fill:#ffffff;stroke-width:1.33923"
     d="m 358.9254,252.09276 c -19.40841,-1.9507 -45.85208,-5.93814 -64.18392,-9.67855 l -12.98111,-2.64855 20.91378,-2.87195 c 47.00186,-6.45446 79.78626,-9.50806 103.43671,-9.6343 21.94606,-0.1152 23.57411,0.0384 26.43118,2.49037 1.67529,1.43828 3.38188,4.79593 3.7945,7.46106 1.02982,6.65145 -3.12087,11.01321 -12.9458,13.6079 -10.309,2.72217 -43.52326,3.37867 -64.46534,1.27387 z"
     id="path230"
     inkscape:transform-center-x="74.808829"
     inkscape:transform-center-y="-692.92288" /><path
     style="fill:#ffffff;stroke-width:1.33923"
     d="m 19.478938,285.17046 c -5.16061,-4.91625 -0.80779,-13.89152 6.73679,-13.89152 4.01172,0 9.62657,4.78099 9.62657,8.19714 0,1.34253 -1.01073,3.68469 -2.24527,5.20466 -2.83059,3.48419 -10.68866,3.7567 -14.11798,0.48978 z"
     id="path228" /><path
     style="fill:#ffffff;stroke-width:1.33923"
     d="m 31.515128,301.12312 c -5.95068,-5.13046 -1.49529,-13.67857 7.13004,-13.67857 4.77871,0 8.73588,3.78665 8.73588,8.35954 0,3.74795 -4.87387,7.80604 -9.37526,7.80604 -1.98337,0 -4.90399,-1.11919 -6.49066,-2.4871 z"
     id="path224" /><path
     style="fill:#ffffff;stroke-width:1.33923"
     d="m 44.817298,317.83992 c -4.70933,-2.84377 -4.51412,-10.94634 0.33059,-13.68252 6.3355,-3.57887 13.77273,0.50001 13.77273,7.5538 0,4.33164 -4.00555,8.06451 -8.65384,8.06451 -1.23368,0 -3.68552,-0.87121 -5.44849,-1.93569 z"
     id="path222" /><path
     style="fill:#ffffff;stroke-width:1.33923"
     d="m 203.25944,300.31865 c 3.8986,-11.52627 10.49468,-29.58511 14.65779,-40.13078 6.21776,-15.74957 7.1852,-19.28433 5.41738,-19.7923 -1.18525,-0.34013 -14.85124,-6.05978 -30.37235,-12.71034 l -28.21987,-12.09189 -1.80043,10.74465 c -2.03045,12.11459 -5.91548,20.79053 -10.6112,23.70041 -10.0996,6.25826 -29.09624,13.60113 -49.41907,19.10251 -18.089691,4.89687 -45.638502,11.08038 -46.408082,10.41683 -0.85051,-0.73286 33.060232,-22.82712 55.637692,-36.25126 l 16.4411,-9.77567 -0.98595,-25.76094 c -1.1058,-28.92476 -0.23028,-33.08607 8.24114,-39.23301 4.06626,-2.94976 5.32535,-3.19429 13.5283,-2.62672 20.30366,1.40523 58.03465,22.11868 90.08695,49.45604 16.2294,13.84221 17.66399,16.8561 13.52856,28.42115 -5.1925,14.52189 -21.89207,39.03581 -42.32097,62.12566 -15.41118,17.41826 -15.23078,17.55486 -7.40086,-5.59449 z"
     id="path220" /><path
     style="fill:#ffffff;stroke-width:1.33923"
     d="m 55.537218,332.42366 c -3.23773,-3.08453 -3.00615,-8.38328 0.49862,-11.40446 3.89352,-3.35671 8.040503,-3.129 12.463764,0.6841 2.873297,2.47757 3.464797,3.90424 2.70315,6.52136 -0.535621,1.84271 -1.652724,4.05274 -2.477405,4.91147 -2.257443,2.34585 -10.439899,1.90352 -13.186189,-0.71284 z"
     id="path218" /><path
     style="fill:#ffffff;stroke-width:1.33923"
     d="m 232.80282,341.88209 c -5.09003,-6.26518 -1.08579,-13.40191 7.52235,-13.40191 8.04508,0 11.90968,8.66809 6.09791,13.67857 -3.91976,3.37949 -10.76295,3.24046 -13.62026,-0.27602 z"
     id="path216" /><path
     style="fill:#ffffff;stroke-width:1.33923"
     d="m 211.16772,341.88209 c -4.89381,-6.02385 -0.96837,-13.40191 7.12981,-13.40191 3.4124,0 5.56136,0.83281 7.12994,2.76359 4.89403,6.02378 0.9685,13.4018 -7.12994,13.4018 -3.41255,0 -5.56112,-0.8327 -7.12981,-2.76354 z"
     id="path214" /><path
     style="fill:#ffffff;stroke-width:1.33923"
     d="m 190.88036,342.92646 c -1.83141,-1.15491 -2.72755,-3.24388 -2.72755,-6.36324 0,-5.28716 3.21095,-8.08276 9.28291,-8.08276 4.93105,0 8.60225,3.5418 8.60225,8.29878 0,6.6966 -8.69338,10.22227 -15.15761,6.14722 z"
     id="path212" /><path
     style="fill:#ffffff;stroke-width:1.33923"
     d="m 169.48177,342.37175 c -3.16826,-3.01836 -3.03607,-9.26926 0.25623,-11.83358 5.78108,-4.51048 15.03082,-0.80279 15.03082,6.02481 0,6.9323 -10.07998,10.76391 -15.28136,5.80877 z"
     id="path210" /><path
     style="fill:#ffffff;stroke-width:1.33923"
     d="m 177.19113,380.70729 c -5.68604,-4.90219 -1.76723,-14.92208 5.83485,-14.92208 3.83706,0 10.03084,5.37488 10.03084,8.70451 0,3.32974 -6.19378,8.70457 -10.03084,8.70457 -1.62164,0 -4.2482,-1.11918 -5.83485,-2.4871 z"
     id="path194" /><path
     style="fill:#ffffff;stroke-width:1.33923"
     d="m 188.72965,395.62922 c -1.58605,-1.36764 -2.8847,-3.88589 -2.8847,-5.59566 0,-1.7099 1.29744,-4.22796 2.8847,-5.59585 1.58605,-1.36766 4.50751,-2.4871 6.49061,-2.4871 1.98448,0 4.90417,1.11918 6.49055,2.4871 1.58594,1.36765 2.88465,3.88595 2.88465,5.59585 0,1.70989 -1.29744,4.22786 -2.88465,5.59566 -1.58599,1.36767 -4.50718,2.48711 -6.49055,2.48711 -1.98415,0 -4.90378,-1.11918 -6.49061,-2.48711 z"
     id="path192" /><path
     style="fill:#ffffff;stroke-width:1.33923"
     d="m 200.37315,411.00429 c -3.6761,-4.02939 -3.77677,-6.80103 -0.37853,-10.41973 5.45973,-5.81291 16.13926,-2.0175 16.13926,5.73568 0,7.59404 -10.31053,10.6582 -15.7609,4.68405 z"
     id="path190" /><path
     style="fill:#ffffff;stroke-width:1.33923"
     d="m 353.7293,414.28113 c 0.40844,-1.02586 3.3401,-9.69938 6.51357,-19.27432 3.17335,-9.57499 9.36716,-26.53169 13.76442,-37.68153 4.3975,-11.14989 7.99523,-20.55918 7.99523,-20.90942 0,-0.52131 -64.30918,-27.83253 -65.53702,-27.83253 -0.20329,0 -0.78569,5.17605 -1.28956,11.50236 -1.6444,20.68682 -4.64553,24.88432 -23.31906,32.61991 -16.39422,6.79135 -70.46107,21.78338 -78.55917,21.78338 -2.21666,0 29.22214,-20.50206 56.75238,-37.0107 l 15.69417,-9.41089 -1.02923,-25.62793 c -0.9045,-22.52759 -0.73286,-26.26393 1.41231,-30.88619 2.81683,-6.06993 9.53203,-11.46667 14.26752,-11.46667 8.31872,0 30.11024,8.54293 49.15466,19.27018 27.04186,15.2321 58.7819,39.40109 60.78662,46.28734 3.12471,10.73327 -16.68038,44.33793 -45.88091,77.84924 -10.54999,12.10767 -11.72456,13.28888 -10.72686,10.78777 z"
     id="path187"
     inkscape:transform-center-x="122.01044"
     inkscape:transform-center-y="-595.48494" /><path
     style="fill:#ffffff;stroke-width:1.33923"
     d="m 212.56334,427.51395 c -3.88597,-2.45002 -3.54628,-9.28457 0.60509,-12.18309 1.80568,-1.26126 4.43902,-2.29323 5.84996,-2.29323 1.40934,0 4.0434,1.03191 5.84997,2.29323 3.70557,2.5869 4.44744,8.80165 1.42482,11.94081 -2.29332,2.38159 -10.11772,2.51983 -13.73047,0.24018 z"
     id="path185" /><path
     style="fill:#ffffff;stroke-width:1.33923"
     d="m 390.15938,436.87785 c -5.65073,-5.38299 -0.9344,-14.49325 7.07828,-13.67384 5.03203,0.51491 9.94677,5.97256 8.62127,9.57358 -2.3239,6.31192 -10.99974,8.57785 -15.69955,4.10026 z"
     id="path183" /><path
     style="fill:#ffffff;stroke-width:1.33923"
     d="m 369.02146,436.66502 c -1.5858,-1.36764 -2.88454,-3.88593 -2.88454,-5.59573 0,-1.70988 1.29746,-4.22793 2.88454,-5.5958 1.58615,-1.36765 4.50769,-2.48712 6.49065,-2.48712 1.9847,0 4.90403,1.11919 6.49041,2.48712 1.58615,1.36764 2.88501,3.88596 2.88501,5.5958 0,1.7099 -1.29769,4.22793 -2.88501,5.59573 -1.58592,1.36766 -4.50711,2.48712 -6.49041,2.48712 -1.98424,0 -4.90403,-1.11918 -6.49065,-2.48712 z"
     id="path181" /><path
     style="fill:#ffffff;stroke-width:1.33923"
     d="m 347.38643,436.66502 c -1.5858,-1.36764 -2.88465,-3.88593 -2.88465,-5.59573 0,-1.70988 1.29745,-4.22793 2.88465,-5.5958 8.34328,-7.19285 20.44987,2.50919 13.62037,10.91486 -2.85743,3.51714 -9.70019,3.65616 -13.62037,0.27601 z"
     id="path179" /><path
     style="fill:#ffffff;stroke-width:1.33923"
     d="m 325.85614,435.8755 c -1.64445,-1.80179 -2.98915,-3.96492 -2.98915,-4.80632 0,-2.83129 5.9506,-8.08281 9.15898,-8.08281 5.46048,0 9.59127,3.4284 9.59127,7.96057 0,7.97221 -10.10187,11.13113 -15.7611,4.92856 z"
     id="path189"
     inkscape:export-filename="favicon.svg"
     inkscape:export-xdpi="1117.0909"
     inkscape:export-ydpi="1117.0909" /></svg>
