<?xml version="1.0" encoding="UTF-8" standalone="no"?>
<!-- Created with Inkscape (http://www.inkscape.org/) -->

<svg
   width="100%"
   viewBox="0 0 310 158"
   version="1.1"
   id="svg5"
   xml:space="preserve"
   inkscape:version="1.2.1 (9c6d41e410, 2022-07-14)"
   sodipodi:docname="logo4.svg"
   xmlns:inkscape="http://www.inkscape.org/namespaces/inkscape"
   xmlns:sodipodi="http://sodipodi.sourceforge.net/DTD/sodipodi-0.dtd"
   xmlns:xlink="http://www.w3.org/1999/xlink"
   xmlns="http://www.w3.org/2000/svg"
   xmlns:svg="http://www.w3.org/2000/svg"><sodipodi:namedview
     id="namedview11"
     pagecolor="#ffffff"
     bordercolor="#000000"
     borderopacity="0.25"
     inkscape:showpageshadow="2"
     inkscape:pageopacity="0.0"
     inkscape:pagecheckerboard="0"
     inkscape:deskcolor="#d1d1d1"
     showgrid="false"
     inkscape:zoom="8.77"
     inkscape:cx="73.09008"
     inkscape:cy="47.434436"
     inkscape:window-width="1920"
     inkscape:window-height="1046"
     inkscape:window-x="-11"
     inkscape:window-y="-11"
     inkscape:window-maximized="1"
     inkscape:current-layer="svg5" /><defs
     id="defs2"><linearGradient
       id="linearGradient9268"><stop
         style="stop-color:#202cf7;stop-opacity:1"
         offset="0"
         id="stop9264" /><stop
         style="stop-color:#7df5d9;stop-opacity:1"
         offset="1"
         id="stop9266" /></linearGradient><linearGradient
       xlink:href="#linearGradient9268"
       id="linearGradient9270"
       x1="40.277122"
       y1="41.327831"
       x2="90.360855"
       y2="139.74411"
       gradientUnits="userSpaceOnUse"
       gradientTransform="matrix(1.5601862,0,0,0.93403669,-9.5785449,-26.162747)" /></defs><path
     id="rect554"
     style="fill:url(#linearGradient9270);fill-opacity:1;stroke-width:0.3199;stroke-dasharray:none"
     d="M 0.25725131,-0.6463618 H 311.72415 L 312.2706,51.367815 0.25725131,98.147855 Z"
     sodipodi:nodetypes="ccccc" /><path
     style="fill:#ffffff;stroke-width:0.193744"
     d="m 177.09332,62.023759 c -0.25337,-0.244751 -0.46056,-0.538584 -0.46056,-0.652879 0,-0.384595 0.91685,-1.097946 1.41117,-1.097946 0.84131,0 1.47776,0.465704 1.47776,1.081343 0,1.082923 -1.55643,1.512024 -2.42837,0.669482 z m 3.31726,0.107248 c -0.24435,-0.185778 -0.44446,-0.527855 -0.44446,-0.76011 0,-0.232265 0.1999,-0.574311 0.44446,-0.760119 1.28547,-0.977059 3.15077,0.340841 2.09854,1.482644 -0.44027,0.477761 -1.49456,0.496646 -2.09854,0.0375 z m 3.33339,0 c -0.24435,-0.185778 -0.44445,-0.527855 -0.44445,-0.76011 0,-0.232265 0.19991,-0.574311 0.44445,-0.760119 0.24436,-0.185779 0.69451,-0.337843 1.00003,-0.337843 0.30578,0 0.75559,0.152031 1,0.337843 0.24439,0.185777 0.4445,0.527858 0.4445,0.760119 0,0.232268 -0.19993,0.574309 -0.4445,0.76011 -0.24435,0.185779 -0.69442,0.337843 -1,0.337843 -0.30572,0 -0.75557,-0.152032 -1.00003,-0.337843 z m 3.25678,0.02891 c -0.87061,-0.731211 -0.14391,-1.968725 1.09058,-1.85742 0.7753,0.06994 1.53253,0.811298 1.32832,1.300452 -0.35806,0.857392 -1.69477,1.165193 -2.4189,0.556968 z m -27.36288,-1.271965 c -0.59872,-0.332804 -0.54639,-1.261193 0.0932,-1.65492 0.27821,-0.171325 0.68394,-0.311507 0.90133,-0.311507 0.21715,0 0.62298,0.140182 0.90132,0.311507 0.57094,0.351398 0.68524,1.195593 0.21954,1.622009 -0.35335,0.323509 -1.55888,0.342289 -2.11551,0.03262 z m 21.74996,-1.797512 c 0.063,-0.139353 0.51462,-1.317537 1.00357,-2.618174 0.48893,-1.30064 1.44324,-3.603996 2.12076,-5.11856 0.67753,-1.514573 1.23184,-2.792707 1.23184,-2.840282 0,-0.07082 -9.90836,-3.780698 -10.09754,-3.780698 -0.0313,0 -0.12105,0.7031 -0.19868,1.562451 -0.25336,2.810042 -0.71575,3.380221 -3.59286,4.431003 -2.52592,0.92252 -10.8562,2.958997 -12.10389,2.958997 -0.34154,0 4.50236,-2.784945 8.74404,-5.027437 l 2.41806,-1.27835 -0.15858,-3.481231 c -0.13936,-3.06009 -0.11292,-3.567626 0.2176,-4.195501 0.43399,-0.824523 1.46863,-1.557602 2.19825,-1.557602 1.28169,0 4.63921,1.16045 7.57344,2.617612 4.16645,2.069088 9.05676,5.35214 9.36562,6.287551 0.48144,1.457979 -2.57001,6.022748 -7.06903,10.574838 -1.62549,1.644673 -1.80645,1.805127 -1.65272,1.465383 z m -23.62815,-0.445117 c -0.56639,-0.547342 -0.58191,-0.923835 -0.0583,-1.415389 0.8412,-0.789612 2.48663,-0.274053 2.48663,0.779119 0,1.031554 -1.58857,1.447783 -2.42834,0.63627 z m -1.79396,-2.088509 c -0.24436,-0.185778 -0.44445,-0.527851 -0.44445,-0.7601 0,-0.232269 0.19991,-0.574316 0.44445,-0.760127 0.24438,-0.185778 0.69449,-0.337841 1.00004,-0.337841 0.30575,0 0.7556,0.152031 1.00002,0.337841 0.24435,0.185779 0.44445,0.527857 0.44445,0.760127 0,0.232265 -0.19991,0.574299 -0.44445,0.7601 -0.24436,0.185779 -0.69443,0.337842 -1.00002,0.337842 -0.30571,0 -0.75555,-0.152031 -1.00004,-0.337842 z m -1.77778,-2.026958 c -0.87607,-0.665902 -0.27228,-2.026977 0.899,-2.026977 0.59119,0 1.54549,0.730112 1.54549,1.1824 0,0.452301 -0.9543,1.182405 -1.54549,1.182405 -0.24986,0 -0.65453,-0.15203 -0.899,-0.33784 z m 60.22324,-7.094404 v -5.067427 h 2.33338 2.33337 v 5.067427 5.067427 h -2.33337 -2.33338 z m 5.77786,1.442109 V 45.23957 h 1.8889 c 1.86671,0 1.88894,0.0052 1.88894,0.422286 0,0.534653 0.11777,0.527092 1.30342,-0.08356 2.19568,-1.130979 4.73872,-0.83629 5.91054,0.684907 0.38443,0.499237 0.437,0.89603 0.44448,3.360633 l 0.007,2.79457 -2.05564,0.04856 -2.05558,0.04856 v -2.191229 c 0,-2.132631 -0.19602,-3.001902 -0.73612,-3.262909 -0.51405,-0.248416 -1.41497,-0.127548 -1.88528,0.252936 -0.43305,0.350401 -0.48223,0.601076 -0.53873,2.744861 l -0.0621,2.359242 -2.05558,0.04856 -2.05562,0.04856 z m 12.00022,-1.442109 v -5.067427 h 2.11112 2.11116 v 5.067427 5.067427 h -2.11116 -2.11112 z m 4.94017,1.393541 0.0598,-3.673883 h 2.00001 2.00002 l 0.0598,3.673883 0.0599,3.673886 h -2.11977 -2.11985 z m 5.05997,0.04856 v -3.637997 h 1.88888 c 1.86675,0 1.88894,0.0052 1.88894,0.422286 0,0.534658 0.11794,0.527095 1.30346,-0.08357 2.1957,-1.130978 4.73871,-0.836293 5.91052,0.684905 0.38442,0.499237 0.43703,0.896031 0.44438,3.360634 l 0.007,2.794564 -2.05555,0.04856 -2.05557,0.04856 v -2.191231 c 0,-2.132635 -0.19601,-3.001907 -0.73617,-3.262914 -0.51408,-0.248415 -1.41502,-0.127546 -1.88525,0.252938 -0.43313,0.350397 -0.48231,0.601072 -0.53878,2.74486 l -0.0617,2.359239 -2.05561,0.04856 -2.05553,0.04856 z m 15.88454,3.331847 c -2.12492,-0.579071 -3.18549,-1.460022 -3.55363,-2.951735 -0.21796,-0.883349 0.38358,-2.297965 1.27178,-2.989439 1.24714,-0.971121 2.41249,-1.271593 4.95318,-1.277172 1.97611,-0.0043 2.35864,0.04601 3.45353,0.454764 1.7659,0.65922 2.87988,1.992427 2.87988,3.446636 v 0.56996 h -4.11115 c -3.50623,0 -4.1112,0.03712 -4.1112,0.253344 0,0.139353 0.19994,0.405399 0.44447,0.5912 0.53868,0.409451 2.14503,0.461153 2.79093,0.08982 0.66427,-0.381934 4.5425,-0.275794 4.5425,0.124346 0,0.281387 -1.54996,1.299119 -2.41163,1.58352 -1.27215,0.419864 -4.77351,0.479505 -6.14868,0.104705 z m 4.6673,-4.093324 c 0.22647,-0.278534 -0.53066,-1.176958 -1.08034,-1.281819 -1.00365,-0.191444 -1.96464,-0.0089 -2.42418,0.461331 -0.75722,0.774461 -0.41603,0.984437 1.59958,0.984437 0.97438,0 1.83168,-0.07379 1.90494,-0.163962 z m -109.74111,1.206383 c -0.48814,-0.410005 -0.46777,-1.259112 0.0394,-1.607443 0.89072,-0.612692 2.31586,-0.109058 2.31586,0.818395 0,0.941665 -1.55306,1.462141 -2.35445,0.789048 z m 3.29696,0.07535 c -0.28218,-0.156888 -0.42024,-0.440639 -0.42024,-0.864367 0,-0.718192 0.49472,-1.097941 1.43026,-1.097941 0.75973,0 1.32537,0.48111 1.32537,1.127286 0,0.90965 -1.33942,1.388567 -2.33539,0.835022 z m 3.12576,-0.141856 c -0.75402,-0.818265 -0.14921,-1.820481 1.09851,-1.820481 0.52576,0 0.85686,0.113128 1.09854,0.375398 0.75403,0.818257 0.14922,1.820467 -1.09854,1.820467 -0.52579,0 -0.85683,-0.113114 -1.09851,-0.375392 z m 3.33339,0 c -0.78424,-0.851046 -0.16727,-1.820481 1.159,-1.820481 1.23954,0 1.83497,1.17745 0.93952,1.858062 -0.60392,0.45906 -1.65827,0.440175 -2.09852,-0.0375 z M 135.44427,47.97114 c -0.49885,-0.418994 -0.46317,-1.138763 0.0769,-1.549153 0.59988,-0.455967 1.23883,-0.425035 1.92033,0.09292 0.4427,0.336546 0.53384,0.530343 0.41649,0.885843 -0.0825,0.250309 -0.25464,0.550517 -0.3817,0.667164 -0.34782,0.318653 -1.60852,0.258568 -2.03165,-0.09682 z m 22.76012,-4.361062 c 0.60066,-1.565697 1.61694,-4.018765 2.25837,-5.45126 0.958,-2.139382 1.10706,-2.619533 0.83468,-2.688535 -0.18261,-0.0462 -2.28819,-0.823144 -4.67958,-1.726541 l -4.34794,-1.642531 -0.2774,1.459528 c -0.31283,1.645613 -0.91142,2.82413 -1.63491,3.219402 -1.55608,0.850104 -4.48297,1.847542 -7.61418,2.594835 -2.78715,0.665178 -7.03169,1.50513 -7.15028,1.414993 -0.13104,-0.09955 5.09372,-3.100776 8.57232,-4.924275 l 2.53315,-1.327902 -0.15191,-3.4993 c -0.17038,-3.929064 -0.0355,-4.494324 1.26974,-5.329309 0.62651,-0.400689 0.8205,-0.433903 2.08435,-0.356808 3.12827,0.190884 8.94163,3.004544 13.88005,6.71798 2.50053,1.880291 2.72155,2.28969 2.08439,3.860655 -0.80003,1.972617 -3.37298,5.302524 -6.52055,8.438989 -2.37446,2.366051 -2.34666,2.384606 -1.14027,-0.75994 z m -24.41179,2.380045 c -0.72558,-0.386291 -0.6955,-1.486923 0.0509,-1.8586 0.97613,-0.486143 2.12202,0.06794 2.12202,1.02609 0,0.588398 -0.61715,1.095463 -1.33334,1.095463 -0.19007,0 -0.56784,-0.118347 -0.83946,-0.26294 z m -2.0495,-2.270767 c -0.91685,-0.696909 -0.2304,-1.858061 1.09854,-1.858061 0.73628,0 1.34598,0.514368 1.34598,1.135538 0,0.50911 -0.75094,1.060351 -1.44449,1.060351 -0.30558,0 -0.75557,-0.152032 -1.00003,-0.337842 z m 105.3351,-0.591178 v -0.929024 h 2.11116 2.11115 v 0.929024 0.929027 h -2.11115 -2.11116 z M 129.88863,41.552377 c -0.79511,-0.667809 -0.12446,-1.886986 1.03796,-1.886986 0.6181,0 1.4832,0.649436 1.4832,1.113477 0,0.182366 -0.15571,0.500518 -0.34593,0.706989 -0.43612,0.473281 -1.64684,0.510299 -2.17521,0.06654 z m 52.2998,-4.493188 c -2.99032,-0.264977 -7.0646,-0.806622 -9.88907,-1.314709 l -2.00005,-0.359771 3.22227,-0.390119 c 7.24176,-0.876756 12.29297,-1.29155 15.93687,-1.308699 3.38132,-0.01572 3.63217,0.0052 4.07238,0.338285 0.2581,0.195373 0.52104,0.651468 0.58462,1.013491 0.15861,0.903517 -0.48085,1.496007 -1.99461,1.848463 -1.58834,0.369774 -6.70579,0.45895 -9.93241,0.173039 z m 15.44005,-1.85243 c -1.31551,-0.312839 -2.05811,-0.739196 -2.67031,-1.533237 -1.11947,-1.452013 -0.91801,-3.13581 0.52021,-4.347304 1.0007,-0.842951 1.89633,-1.147004 3.37869,-1.147004 2.10613,0 3.94569,1.127535 4.45083,2.728089 0.81488,2.581797 -2.4641,5.064055 -5.67942,4.299456 z m -81.13482,-6.965633 c -0.36837,-0.06233 -0.50193,-0.249048 -0.6111,-0.854506 -0.22726,-1.260449 -0.27857,-1.21192 1.1746,-1.111762 1.20833,0.08327 1.36237,0.05405 1.9102,-0.362325 0.74619,-0.56718 0.7327,-0.609786 -1.13546,-3.584295 -1.80712,-2.877344 -2.5335,-4.1116 -2.5335,-4.304891 0,-0.08139 0.95001,-0.147917 2.11113,-0.147917 1.16112,0 2.11116,0.02112 2.11116,0.0473 0,0.259827 2.00422,4.429293 2.14525,4.462863 0.10349,0.02444 0.53275,-0.809052 0.95396,-1.852623 1.17065,-2.900339 0.89558,-2.657515 3.01062,-2.657515 0.99893,0 1.87249,0.04283 1.94127,0.09502 0.0688,0.05226 -0.52143,1.287468 -1.31156,2.74486 -0.79013,1.457399 -1.73187,3.219897 -2.0927,3.916665 -1.6172,3.122666 -2.30095,3.593858 -5.29939,3.651965 -1.04669,0.02048 -2.11519,0.001 -2.37448,-0.04285 z m -71.585372,-0.1706 c -0.213305,-0.06789 -0.277745,-1.241985 -0.277745,-5.057334 v -4.968886 h 2.00003 2.000031 v 0.442881 c 0,0.429524 0.01486,0.434455 0.50004,0.163302 0.275014,-0.153725 0.93995,-0.437652 1.477666,-0.630871 1.902093,-0.683473 4.264397,-0.0639 5.34898,1.402887 0.624918,0.845147 0.858526,2.666748 0.459721,3.585133 -0.828519,1.908199 -3.707918,2.81779 -6.199534,1.958415 -0.532815,-0.183771 -1.054318,-0.334135 -1.158926,-0.334135 -0.104595,0 -0.218685,0.779116 -0.25357,1.73137 l -0.06331,1.73137 -1.777802,0.03221 c -0.977802,0.01778 -1.902817,-0.0075 -2.055598,-0.05632 z m 6.987785,-5.169942 c 1.523271,-1.275111 0.145662,-3.367068 -1.817289,-2.759568 -1.300618,0.402503 -1.631309,1.734077 -0.650667,2.619923 0.7199,0.650308 1.785852,0.710619 2.467956,0.139623 z m -30.493898,2.195889 c -0.05663,-0.116177 -0.128424,-1.883397 -0.159718,-3.927255 l -0.05677,-3.716112 -2.277823,-0.04816 -2.277813,-0.04813 v -1.176477 -1.17649 h 7.111229 7.111235 v 1.182394 1.182405 h -2.092978 c -1.151134,0 -2.251155,0.04612 -2.444484,0.102557 -0.306354,0.08934 -0.35153,0.599141 -0.35153,3.969484 v 3.866959 h -2.22924 c -1.580362,0 -2.259178,-0.0615 -2.332113,-0.211113 z m 13.614185,-0.0815 c -4.499036,-1.269094 -4.920706,-5.321589 -0.731111,-7.026463 1.250365,-0.508813 5.337601,-0.537142 6.638632,-0.04602 2.011617,0.759384 2.895683,1.933955 2.772752,3.683949 -0.104594,1.489257 -0.875152,2.368461 -2.69605,3.076305 -1.648356,0.640762 -4.324537,0.780395 -5.984223,0.312206 z m 3.769825,-1.988239 c 1.046404,-0.557096 1.185605,-2.134842 0.266729,-3.022792 -0.627743,-0.606592 -2.116615,-0.624236 -2.846441,-0.0337 -0.971562,0.786084 -0.815834,2.479425 0.281792,3.063788 0.598889,0.318838 1.691941,0.315391 2.297969,-0.0075 z m 22.78319,2.032702 c -2.597228,-0.616468 -4.02054,-2.166525 -3.758887,-4.093568 0.171405,-1.262593 1.003806,-2.16894 2.605554,-2.837121 1.141971,-0.476371 1.361242,-0.506743 3.659242,-0.506743 2.195398,0 2.545324,0.04305 3.434124,0.422289 2.994872,1.277927 3.554954,4.147501 1.154581,5.915363 -1.68158,1.238482 -4.602589,1.691281 -7.094614,1.099786 z m 3.745241,-2.272548 c 0.558495,-0.424503 0.649587,-0.622401 0.649587,-1.411104 0,-1.217075 -0.655943,-1.811265 -1.999515,-1.811265 -1.403656,0 -2.000551,0.547618 -2.000551,1.835364 0,0.916155 0.06116,1.045264 0.683731,1.443454 0.926106,0.592325 1.838634,0.573006 2.666748,-0.0565 z m 5.760792,-2.546711 v -5.06743 h 2.111147 2.111143 v 5.06743 5.06743 h -2.111143 -2.111147 z m 8.513176,4.727874 c -2.342422,-0.582715 -3.475568,-1.733864 -3.48999,-3.545472 -0.01848,-2.334149 1.835289,-3.696629 5.238648,-3.850085 3.406507,-0.153624 5.226751,0.297201 6.384159,1.58111 0.766719,0.850523 0.549634,1.019834 -1.459209,1.138048 -1.55816,0.09169 -1.777401,0.06765 -2.076271,-0.227708 -0.706341,-0.69804 -2.598389,-0.702649 -3.425033,-0.0087 -0.521688,0.438177 -0.70045,1.572108 -0.349383,2.216328 0.32711,0.600237 1.230466,1.008716 2.230836,1.008716 0.500401,0 0.916435,-0.16452 1.459379,-0.577252 l 0.759427,-0.577245 1.653982,0.120103 c 0.909699,0.06604 1.717102,0.168058 1.794235,0.226673 0.467425,0.35529 -1.045625,1.823936 -2.434894,2.363312 -1.350638,0.524374 -4.446854,0.589309 -6.285886,0.131804 z m 11.547308,0.0075 c -0.896826,-0.309427 -1.835275,-1.162392 -1.837123,-1.669725 -0.0018,-0.489929 0.757456,-1.404179 1.36414,-1.642645 0.351094,-0.137989 1.812642,-0.433223 3.247864,-0.656044 3.034323,-0.471072 3.387303,-0.559559 3.387303,-0.849146 0,-0.726373 -2.313743,-0.904746 -3.231846,-0.24916 -0.457435,0.326583 -0.709326,0.361626 -2.190941,0.304799 -0.920774,-0.03555 -1.776167,-0.141816 -1.900848,-0.236562 -0.423514,-0.321875 0.515429,-1.30951 1.677159,-1.764171 0.988441,-0.386856 1.321859,-0.422288 3.97385,-0.422288 2.4552,0 3.027697,0.0513 3.769427,0.337846 1.620563,0.625989 1.776203,0.946117 1.915033,3.938721 0.0677,1.456919 0.20329,2.781957 0.30157,2.944538 0.16272,0.269162 0.007,0.295612 -1.739524,0.295612 -1.83409,0 -1.927325,-0.01821 -2.126377,-0.416187 l -0.208147,-0.416181 -0.953011,0.414154 c -1.251762,0.543981 -3.996364,0.58755 -5.448506,0.08653 z m 4.898996,-1.377194 c 0.730883,-0.28409 1.252723,-0.853858 1.258245,-1.373776 0.0056,-0.56129 -0.160485,-0.571192 -2.069341,-0.12307 -1.036537,0.243342 -1.495958,0.44095 -1.599016,0.687758 -0.319656,0.765561 1.205192,1.277456 2.410112,0.809073 z m 6.596612,-1.92279 V 18.04387 h 2.00002 c 1.98523,0 2.00005,0.0031 2.00005,0.422285 0,0.488639 0.25991,0.5418 0.69502,0.142187 0.48371,-0.444284 1.99829,-0.894509 3.02277,-0.898554 1.40297,-0.0052 2.63511,0.435507 3.22252,1.153505 0.46406,0.567243 0.51016,0.848686 0.57818,3.53016 l 0.0738,2.913775 h -2.12951 -2.12951 v -2.411679 c 0,-2.63458 -0.20307,-3.162502 -1.21666,-3.162502 -1.57745,0 -1.89449,0.563944 -1.89449,3.369895 v 2.204279 h -2.11115 -2.11114 z m 56.89244,2.778046 c -2.61799,-0.189707 -8.05246,-0.883782 -11.00279,-1.405236 -2.62404,-0.463782 -2.8213,-0.404005 3.66678,-1.111407 6.91948,-0.754442 10.50724,-1.040135 13.48519,-1.073835 2.43458,-0.02741 2.76988,0.0049 3.32844,0.321877 0.73946,0.419638 0.987,1.157888 0.65227,1.94514 -0.21599,0.507958 -0.40661,0.61392 -1.69328,0.94098 -1.74923,0.444673 -5.33514,0.60725 -8.43661,0.382498 z m 13.21988,-2.113699 c -1.56947,-0.618206 -2.77784,-2.032306 -2.77784,-3.250782 0,-1.235295 1.28018,-2.774055 2.7485,-3.303673 0.93069,-0.335693 2.78543,-0.35729 3.77223,-0.04388 1.41508,0.449407 2.81529,2.110551 2.8115,3.335411 -0.005,1.258879 -1.34915,2.830443 -2.82501,3.300049 -0.96069,0.305724 -2.90824,0.286313 -3.72938,-0.03712 z"
     id="path189" /><text
     xml:space="preserve"
     style="fill:#ffffff;stroke-width:1.00157"
     x="29.72167"
     y="53.479126"
     id="text345"><tspan
       sodipodi:role="line"
       id="tspan343"
       x="29.72167"
       y="53.479126" /></text><path
     style="font-weight:bold;-inkscape-font-specification:'sans-serif Bold';fill:#ffffff;stroke-width:0.833194"
     d="m 84.95067,15.351542 -1.969151,1.522127 h -1.539741 l -1.969149,-1.522127 h 1.619487 l 1.134868,0.879193 1.128735,-0.879193 z"
     id="path1020" /></svg>
