<?xml version="1.0" encoding="UTF-8" standalone="no"?>
<!-- Created with Inkscape (http://www.inkscape.org/) -->

<svg
   width="100%"
   viewBox="0 0 310 100"
   version="1.1"
   id="svg5"
   xml:space="preserve"
   inkscape:version="1.2.1 (9c6d41e410, 2022-07-14)"
   sodipodi:docname="logo4.svg"
   xmlns:inkscape="http://www.inkscape.org/namespaces/inkscape"
   xmlns:sodipodi="http://sodipodi.sourceforge.net/DTD/sodipodi-0.dtd"
   xmlns:xlink="http://www.w3.org/1999/xlink"
   xmlns="http://www.w3.org/2000/svg"
   xmlns:svg="http://www.w3.org/2000/svg"><sodipodi:namedview
     id="namedview11"
     pagecolor="#ffffff"
     bordercolor="#000000"
     borderopacity="0.25"
     inkscape:showpageshadow="2"
     inkscape:pageopacity="0.0"
     inkscape:pagecheckerboard="0"
     inkscape:deskcolor="#d1d1d1"
     showgrid="false"
     inkscape:zoom="9.4"
     inkscape:cx="162.65957"
     inkscape:cy="47.340426"
     inkscape:window-width="1920"
     inkscape:window-height="1046"
     inkscape:window-x="-11"
     inkscape:window-y="-11"
     inkscape:window-maximized="1"
     inkscape:current-layer="svg5" /><defs
     id="defs2"><linearGradient
       id="linearGradient9268"><stop
         style="stop-color:#202cf7;stop-opacity:1"
         offset="0"
         id="stop9264" /><stop
         style="stop-color:#7df5d9;stop-opacity:1"
         offset="1"
         id="stop9266" /></linearGradient><linearGradient
       xlink:href="#linearGradient9268"
       id="linearGradient9270"
       x1="40.277122"
       y1="41.327831"
       x2="90.360855"
       y2="139.74411"
       gradientUnits="userSpaceOnUse"
       gradientTransform="matrix(1.5624669,0,0,0.93403669,-10.049023,-26.162747)" /></defs><path
     id="rect554"
     style="fill:url(#linearGradient9270);fill-opacity:1;stroke-width:0.320134;stroke-dasharray:none"
     d="M -0.19884903,-0.6463618 H 311.72335 L 312.2706,51.367815 -0.19884903,98.147855 Z"
     sodipodi:nodetypes="ccccc" /><path
     style="fill:#ffffff;stroke-width:0.217699"
     d="m 195.41037,57.726741 c -0.29844,-0.262338 -0.5425,-0.577287 -0.5425,-0.699794 0,-0.412233 1.07998,-1.176847 1.66226,-1.176847 0.99101,0 1.7407,0.499171 1.7407,1.159049 0,1.160744 -1.83338,1.62068 -2.86046,0.717592 z m 3.90751,0.11496 c -0.28781,-0.199128 -0.52354,-0.565787 -0.52354,-0.814732 0,-0.248956 0.23547,-0.615581 0.52354,-0.814741 1.5142,-1.047271 3.7114,0.365334 2.47194,1.589188 -0.5186,0.512093 -1.76049,0.532334 -2.47194,0.04019 z m 3.92651,0 c -0.28782,-0.199128 -0.52353,-0.565787 -0.52353,-0.814732 0,-0.248956 0.23548,-0.615581 0.52353,-0.814741 0.28785,-0.19913 0.81808,-0.362122 1.17797,-0.362122 0.36019,0 0.89003,0.162957 1.17793,0.362122 0.28787,0.199126 0.5236,0.56579 0.5236,0.814741 0,0.248959 -0.23551,0.61558 -0.5236,0.814732 -0.28783,0.199129 -0.81798,0.362121 -1.17793,0.362121 -0.36012,0 -0.89002,-0.162958 -1.17797,-0.362121 z m 3.83627,0.03098 c -1.02553,-0.783756 -0.16952,-2.110199 1.28464,-1.990895 0.91324,0.07497 1.80521,0.869598 1.56466,1.393903 -0.42177,0.919006 -1.99632,1.248925 -2.8493,0.596992 z m -32.23162,-1.36337 c -0.70526,-0.35672 -0.64361,-1.351823 0.10981,-1.773845 0.32771,-0.183636 0.80563,-0.33389 1.0617,-0.33389 0.25578,0 0.73383,0.150254 1.0617,0.33389 0.67252,0.376651 0.80716,1.281511 0.25859,1.73857 -0.41621,0.346756 -1.83625,0.366884 -2.49192,0.03496 z m 25.61999,-1.926683 c 0.0742,-0.149367 0.60618,-1.412217 1.18213,-2.806319 0.57593,-1.394105 1.70004,-3.862981 2.4981,-5.486383 0.79809,-1.623412 1.45103,-2.993393 1.45103,-3.044387 0,-0.07591 -11.67137,-4.052382 -11.89421,-4.052382 -0.0369,0 -0.1426,0.753625 -0.23404,1.674729 -0.29844,3.011975 -0.84311,3.623127 -4.23214,4.749419 -2.97536,0.988813 -12.78787,3.171634 -14.25758,3.171634 -0.4023,0 5.30348,-2.985074 10.2999,-5.388713 l 2.84831,-1.370214 -0.1868,-3.731395 c -0.16415,-3.27999 -0.13301,-3.823998 0.25632,-4.496993 0.51122,-0.883774 1.72995,-1.669532 2.58939,-1.669532 1.50975,0 5.46467,1.24384 8.92101,2.805714 4.90778,2.217776 10.66824,5.73675 11.03206,6.739381 0.56711,1.562751 -3.02729,6.455548 -8.32685,11.334754 -1.9147,1.762862 -2.12787,1.934845 -1.94679,1.570687 z m -27.83237,-0.477104 c -0.66717,-0.586675 -0.68544,-0.990223 -0.0687,-1.5171 0.99088,-0.846354 2.92909,-0.293746 2.92909,0.835108 0,1.105683 -1.87124,1.551821 -2.86042,0.681992 z m -2.11316,-2.238591 c -0.28785,-0.199127 -0.52354,-0.565782 -0.52354,-0.814721 0,-0.24896 0.23547,-0.615587 0.52354,-0.81475 0.28785,-0.199129 0.81806,-0.362119 1.17797,-0.362119 0.36016,0 0.89005,0.162956 1.17796,0.362119 0.28783,0.199129 0.52353,0.565789 0.52353,0.81475 0,0.248956 -0.23547,0.615569 -0.52353,0.814721 -0.28784,0.19913 -0.818,0.36212 -1.17796,0.36212 -0.3601,0 -0.88998,-0.162956 -1.17797,-0.36212 z m -2.09411,-2.172617 c -1.03195,-0.713753 -0.32073,-2.172636 1.05896,-2.172636 0.69638,0 1.82048,0.782577 1.82048,1.267367 0,0.484805 -1.1241,1.267375 -1.82048,1.267375 -0.29431,0 -0.771,-0.162957 -1.05896,-0.362119 z m 70.9389,-7.604213 v -5.431577 h 2.74856 2.74856 v 5.431577 5.431577 h -2.74856 -2.74856 z m 6.80592,1.54574 v -3.899421 h 2.22501 c 2.19886,0 2.22503,0.0056 2.22503,0.452634 0,0.573072 0.13873,0.564967 1.53536,-0.08957 2.58634,-1.212251 5.58188,-0.896386 6.96221,0.734125 0.45283,0.535114 0.51475,0.96042 0.52355,3.602131 l 0.007,2.99539 -2.4214,0.05205 -2.42133,0.05205 v -2.348686 c 0,-2.285884 -0.2309,-3.217621 -0.8671,-3.497384 -0.60551,-0.266268 -1.66673,-0.136714 -2.22073,0.271112 -0.5101,0.37558 -0.56804,0.644269 -0.63459,2.942109 l -0.0731,2.528779 -2.42134,0.05205 -2.42137,0.05205 z m 14.13545,-1.54574 v -5.431577 h 2.48675 2.48681 v 5.431577 5.431577 h -2.48681 -2.48675 z m 5.8192,1.493682 0.0704,-3.937891 h 2.35586 2.35589 l 0.0705,3.937891 0.0706,3.937895 h -2.49696 -2.49703 z m 5.9603,0.05205 v -3.899426 h 2.22497 c 2.1989,0 2.22503,0.0056 2.22503,0.452632 0,0.573078 0.13892,0.564971 1.5354,-0.08957 2.58638,-1.212251 5.58188,-0.89639 6.96219,0.734123 0.45282,0.535113 0.51478,0.960421 0.52344,3.602131 l 0.007,2.995384 -2.4213,0.05205 -2.42133,0.05205 v -2.348696 c 0,-2.285887 -0.23088,-3.217625 -0.86715,-3.497389 -0.60556,-0.266265 -1.66681,-0.136711 -2.2207,0.271115 -0.5102,0.375577 -0.56813,0.644265 -0.63464,2.942108 l -0.0727,2.528776 -2.42139,0.05205 -2.42126,0.05205 z m 18.7109,3.571277 c -2.50301,-0.620684 -3.75229,-1.564941 -4.18594,-3.16385 -0.25673,-0.946827 0.45183,-2.463097 1.49809,-3.204263 1.46904,-1.040905 2.84174,-1.362971 5.8345,-1.368951 2.32772,-0.0046 2.77831,0.04931 4.06802,0.487445 2.08012,0.706592 3.39231,2.135604 3.39231,3.694313 v 0.610918 h -4.84266 c -4.1301,0 -4.8427,0.03978 -4.8427,0.27155 0,0.149367 0.23551,0.434531 0.52354,0.633684 0.63453,0.438875 2.5267,0.494292 3.28752,0.09628 0.78247,-0.40938 5.35077,-0.295614 5.35077,0.133281 0,0.301607 -1.82574,1.392474 -2.84074,1.697313 -1.49851,0.450036 -5.62287,0.513964 -7.24273,0.11223 z m 5.49776,-4.387475 c 0.26678,-0.298549 -0.62507,-1.261534 -1.27256,-1.373931 -1.18223,-0.205201 -2.31422,-0.0095 -2.85553,0.494483 -0.89194,0.830114 -0.49004,1.05518 1.88421,1.05518 1.14775,0 2.15759,-0.07909 2.24388,-0.175745 z M 167.03023,44.11271 c -0.575,-0.439469 -0.55101,-1.349593 0.0465,-1.722955 1.0492,-0.656721 2.72792,-0.116893 2.72792,0.877205 0,1.009334 -1.8294,1.567212 -2.77339,0.84575 z m 3.8836,0.08076 c -0.33238,-0.168162 -0.49502,-0.472304 -0.49502,-0.92648 0,-0.769803 0.58275,-1.17684 1.68474,-1.17684 0.89493,0 1.56121,0.515683 1.56121,1.208294 0,0.975017 -1.57775,1.48835 -2.75093,0.895026 z m 3.68192,-0.152049 c -0.88817,-0.877066 -0.17575,-1.951302 1.29398,-1.951302 0.61931,0 1.00932,0.121257 1.294,0.402374 0.88821,0.877057 0.17578,1.951287 -1.294,1.951287 -0.61934,0 -1.00928,-0.121242 -1.29398,-0.402368 z m 3.92652,0 c -0.92378,-0.912203 -0.19705,-1.951302 1.36522,-1.951302 1.46009,0 2.16147,1.262062 1.1067,1.991583 -0.71139,0.492049 -1.95335,0.471807 -2.47192,-0.04019 z M 146.35061,42.66428 c -0.58761,-0.449104 -0.54558,-1.220595 0.0905,-1.660476 0.70663,-0.488733 1.45926,-0.455579 2.26203,0.0996 0.52147,0.360732 0.62882,0.568454 0.49059,0.949502 -0.0972,0.268296 -0.29995,0.590076 -0.44962,0.715105 -0.4097,0.341552 -1.89472,0.27715 -2.39314,-0.10378 z m 26.80988,-4.674451 c 0.70755,-1.67821 1.90466,-4.307557 2.66022,-5.842993 1.12845,-2.293119 1.30403,-2.807775 0.98319,-2.881735 -0.21511,-0.04952 -2.69533,-0.882296 -5.51223,-1.850611 l -5.12158,-1.760565 -0.32676,1.56441 c -0.3685,1.763869 -1.07359,3.027075 -1.92581,3.450751 -1.83296,0.911194 -5.28063,1.980308 -8.96899,2.781303 -3.28307,0.712977 -8.28286,1.613289 -8.42253,1.516676 -0.15436,-0.106698 6.00005,-3.323601 10.0976,-5.278139 l 2.98387,-1.423325 -0.17893,-3.750763 c -0.2007,-4.21141 -0.0418,-4.81729 1.49567,-5.712278 0.73798,-0.429482 0.96649,-0.465084 2.45523,-0.382448 3.68488,0.2046 10.53262,3.220453 16.34974,7.20074 2.94545,2.015409 3.20581,2.454228 2.45528,4.138085 -0.94238,2.11437 -3.97316,5.683567 -7.68077,9.045421 -2.79695,2.536078 -2.76421,2.555966 -1.34317,-0.81455 z m -28.75542,2.551076 c -0.85469,-0.41405 -0.81926,-1.593774 0.06,-1.99216 1.14982,-0.521078 2.49959,0.07281 2.49959,1.099825 0,0.630681 -0.72696,1.174184 -1.57057,1.174184 -0.2239,0 -0.66888,-0.126851 -0.98884,-0.281835 z m -2.41419,-2.433946 c -1.07998,-0.746989 -0.27138,-1.991583 1.29402,-1.991583 0.86728,0 1.58546,0.551331 1.58546,1.217139 0,0.545696 -0.88455,1.136549 -1.7015,1.136549 -0.35996,0 -0.89002,-0.162957 -1.17798,-0.362119 z m 124.07763,-0.633661 v -0.995784 h 2.48681 2.48677 v 0.995784 0.995789 h -2.48677 -2.48681 z M 139.80645,35.78427 c -0.93659,-0.715799 -0.1466,-2.022587 1.22265,-2.022587 0.72808,0 1.74711,0.696105 1.74711,1.193493 0,0.195471 -0.18343,0.536485 -0.40749,0.757792 -0.51372,0.507293 -1.93987,0.54697 -2.56225,0.07132 z m 61.60562,-4.816072 c -3.5224,-0.284019 -8.32163,-0.864587 -11.64865,-1.409186 l -2.35592,-0.385625 3.79561,-0.418152 c 8.5303,-0.939761 14.48028,-1.384363 18.77256,-1.402744 3.98296,-0.01685 4.27844,0.0056 4.79697,0.362595 0.30404,0.209413 0.61376,0.698283 0.68866,1.086321 0.18682,0.968444 -0.56641,1.603511 -2.34953,1.981295 -1.87095,0.396346 -7.89896,0.49193 -11.6997,0.185474 z M 219.5994,28.98265 c -1.54958,-0.33532 -2.42432,-0.792315 -3.14543,-1.643416 -1.31867,-1.556357 -1.08136,-3.361153 0.61277,-4.659705 1.17874,-0.903526 2.23374,-1.22943 3.97985,-1.22943 2.48089,0 4.64777,1.208561 5.24278,2.924132 0.95989,2.767327 -2.90254,5.427964 -6.68997,4.608419 z m -95.57132,-7.466189 c -0.43392,-0.06681 -0.59125,-0.266945 -0.71983,-0.915912 -0.2677,-1.351026 -0.32814,-1.299009 1.3836,-1.191653 1.42332,0.08925 1.60478,0.05794 2.25009,-0.388362 0.87895,-0.607939 0.86306,-0.653607 -1.33751,-3.841866 -2.12865,-3.084112 -2.98429,-4.407063 -2.98429,-4.614244 0,-0.08724 1.11906,-0.158547 2.48677,-0.158547 1.36772,0 2.48682,0.02263 2.48682,0.0507 0,0.278499 2.36083,4.747587 2.52694,4.783568 0.1219,0.02619 0.62754,-0.867191 1.12371,-1.985753 1.37893,-3.10876 1.05493,-2.848487 3.5463,-2.848487 1.17668,0 2.20566,0.0459 2.28668,0.101847 0.081,0.05602 -0.6142,1.379986 -1.54492,2.942107 -0.93072,1.562129 -2.04003,3.451281 -2.46506,4.198119 -1.90496,3.347065 -2.71037,3.852117 -6.24233,3.914399 -1.23292,0.02195 -2.49155,0.0011 -2.79697,-0.04593 z M 39.705358,21.333602 c -0.25126,-0.07278 -0.327165,-1.331236 -0.327165,-5.420758 v -5.325956 h 2.355899 2.355901 v 0.474707 c 0,0.460391 0.01751,0.465676 0.589013,0.175038 0.323948,-0.164772 1.107198,-0.469103 1.740592,-0.676207 2.240537,-0.7325872 5.02317,-0.06849 6.300735,1.5037 0.736111,0.905881 1.011286,2.858383 0.541521,3.842765 -0.97594,2.045322 -4.367676,3.020278 -7.302632,2.099148 -0.62762,-0.196978 -1.241915,-0.358148 -1.365136,-0.358148 -0.123205,0 -0.257596,0.835105 -0.298688,1.855788 l -0.07458,1.855789 -2.094131,0.03453 c -1.151784,0.01905 -2.24139,-0.0081 -2.421354,-0.06037 z m 8.231136,-5.54146 c 1.794311,-1.36674 0.171582,-3.609027 -2.140642,-2.957872 -1.532042,0.431428 -1.921572,1.858689 -0.766442,2.808194 0.847994,0.697039 2.103613,0.761683 2.907084,0.149655 z m -35.919747,2.353689 c -0.06671,-0.124525 -0.151274,-2.01874 -0.188137,-4.209472 L 11.761747,9.9532045 9.0786259,9.9015841 6.3955164,9.8499987 V 8.5889798 7.3279458 h 8.3765476 8.376553 v 1.2673621 1.2673739 h -2.465391 c -1.355958,0 -2.651709,0.049429 -2.879438,0.1099205 -0.360864,0.095765 -0.414077,0.6421947 -0.414077,4.2547337 v 4.144843 h -2.625894 c -1.861561,0 -2.661158,-0.06591 -2.747072,-0.226285 z m 16.03659,-0.08736 c -5.299561,-1.360292 -5.79626,-5.704002 -0.8612,-7.53139 1.472845,-0.5453773 6.287333,-0.5757414 7.819858,-0.04932 2.369549,0.813953 3.410919,2.07293 3.266116,3.94868 -0.123206,1.596276 -1.03087,2.538661 -3.175765,3.297371 -1.941652,0.686807 -5.094012,0.836474 -7.049009,0.334641 z m 4.440597,-2.131116 c 1.232594,-0.597129 1.396562,-2.288252 0.31419,-3.240012 -0.739439,-0.650181 -2.49323,-0.669094 -3.352916,-0.03612 -1.144433,0.842574 -0.960997,2.6576 0.331932,3.283956 0.705451,0.34175 1.992993,0.338055 2.706853,-0.0081 z m 26.837056,2.178773 c -3.059359,-0.660767 -4.735924,-2.322212 -4.427713,-4.387734 0.201902,-1.353323 1.182414,-2.324802 3.069165,-3.040999 1.345165,-0.510603 1.60345,-0.543158 4.310339,-0.543158 2.586031,0 2.99822,0.04615 4.045166,0.452635 3.527756,1.36976 4.187494,4.445545 1.360017,6.340447 -1.980787,1.327479 -5.421537,1.812817 -8.356974,1.178816 z m 4.41164,-2.435854 c 0.65787,-0.455008 0.76517,-0.667128 0.76517,-1.512507 0,-1.304536 -0.772657,-1.941423 -2.355294,-1.941423 -1.653411,0 -2.356514,0.586969 -2.356514,1.967254 0,0.98199 0.07205,1.120377 0.80539,1.547183 1.09089,0.634889 2.165786,0.614181 3.141248,-0.06057 z m 6.785824,-2.72972 V 7.5089715 h 2.486787 2.486785 v 5.4315795 5.431581 h -2.486785 -2.486787 z m 10.027944,5.067624 c -2.759215,-0.624591 -4.093983,-1.858462 -4.110972,-3.800254 -0.02177,-2.501883 2.161847,-3.962272 6.170773,-4.126756 4.012634,-0.164662 6.156759,0.31856 7.520107,1.694731 0.903143,0.911643 0.647432,1.093121 -1.718849,1.21983 -1.835408,0.09827 -2.093658,0.07252 -2.445707,-0.244072 -0.832022,-0.748202 -3.060727,-0.753142 -4.034458,-0.0094 -0.614513,0.469664 -0.825082,1.68508 -0.411547,2.375595 0.385312,0.64337 1.449403,1.081202 2.627772,1.081202 0.589439,0 1.079497,-0.176342 1.71905,-0.618733 l 0.894554,-0.618727 1.948277,0.128734 c 1.071565,0.07078 2.022631,0.180135 2.113489,0.242962 0.550595,0.380821 -1.231675,1.955006 -2.868141,2.533143 -1.59096,0.562054 -5.238092,0.631656 -7.404348,0.141275 z m 13.601946,0.0081 c -1.056399,-0.331664 -2.161828,-1.245923 -2.164005,-1.789714 -0.0022,-0.525135 0.892231,-1.505084 1.606864,-1.760686 0.413565,-0.147905 2.13517,-0.464355 3.825767,-0.703189 3.57423,-0.504923 3.99002,-0.599768 3.99002,-0.910166 0,-0.77857 -2.725447,-0.969761 -3.806909,-0.267064 -0.538828,0.350051 -0.835536,0.387612 -2.580776,0.326702 -1.08461,-0.03811 -2.092205,-0.152007 -2.239071,-0.253561 -0.49887,-0.345006 0.607141,-1.403614 1.97558,-1.890947 1.164313,-0.414655 1.557066,-0.452633 4.680926,-0.452633 2.89205,0 3.56642,0.05498 4.44014,0.362123 1.9089,0.670973 2.09224,1.014106 2.25576,4.22176 0.0798,1.561615 0.23946,2.981871 0.35524,3.156137 0.19167,0.288504 0.007,0.316854 -2.04905,0.316854 -2.16042,0 -2.27025,-0.01952 -2.50471,-0.446095 l -0.24519,-0.446088 -1.12259,0.443915 c -1.474491,0.583072 -4.707444,0.629771 -6.417968,0.09275 z m 5.770693,-1.476141 c 0.860923,-0.304504 1.475613,-0.915216 1.482123,-1.472496 0.006,-0.601625 -0.18904,-0.612238 -2.437544,-0.131914 -1.220971,0.260829 -1.762137,0.472638 -1.883534,0.73718 -0.376531,0.820575 1.419638,1.369256 2.838955,0.867214 z m 7.770353,-2.060963 v -3.892673 h 2.3559 c 2.33846,0 2.35592,0.0033 2.35592,0.452631 0,0.523752 0.30615,0.580734 0.81868,0.152405 0.56977,-0.476212 2.35386,-0.958791 3.56062,-0.963126 1.65259,-0.0056 3.10398,0.466804 3.79592,1.236397 0.54661,0.608006 0.60093,0.909673 0.68105,3.78384 l 0.0869,3.123161 h -2.50842 -2.50841 v -2.584984 c 0,-2.823902 -0.2392,-3.389761 -1.43314,-3.389761 -1.85814,0 -2.23158,0.604469 -2.23158,3.612057 v 2.362681 h -2.48679 -2.48679 z m 67.01544,2.977679 c -3.08381,-0.203339 -9.48525,-0.947292 -12.96053,-1.506218 -3.09096,-0.49711 -3.32331,-0.433037 4.31922,-1.191273 8.15067,-0.808656 12.3768,-1.114879 15.88463,-1.151002 2.86778,-0.02938 3.26274,0.0053 3.92067,0.345007 0.87104,0.449795 1.16264,1.241095 0.76834,2.08492 -0.25443,0.544461 -0.47896,0.658038 -1.99458,1.0086 -2.06047,0.476628 -6.28442,0.650887 -9.93775,0.409985 z m 15.57213,-2.265591 c -1.84873,-0.662631 -3.2721,-2.17835 -3.2721,-3.484385 0,-1.324065 1.50796,-2.9734015 3.23754,-3.541078 1.0963,-0.3598165 3.28104,-0.3829654 4.44343,-0.047039 1.66686,0.4817018 3.31622,2.262217 3.31176,3.575097 -0.005,1.349343 -1.58921,3.033842 -3.32768,3.537194 -1.13162,0.327693 -3.42569,0.306887 -4.39295,-0.03978 z"
     id="path189" /><text
     xml:space="preserve"
     style="fill:#ffffff;stroke-width:1.00157"
     x="29.72167"
     y="53.479126"
     id="text345"><tspan
       sodipodi:role="line"
       id="tspan343"
       x="29.72167"
       y="53.479126" /></text><path
     style="font-weight:bold;-inkscape-font-specification:'sans-serif Bold';fill:#ffffff;stroke-width:1.03829"
     d="M 86.948854,7.7779812 84.559055,9.7256401 H 82.690396 L 80.3006,7.7779812 h 1.96544 l 1.377297,1.1249837 1.369854,-1.1249837 z"
     id="path1020" /></svg>
