<?xml version="1.0" encoding="UTF-8" standalone="no"?>
<!-- Created with Inkscape (http://www.inkscape.org/) -->

<svg
   width="100%"
   viewBox="0 0 310 158"
   version="1.1"
   id="svg5"
   xml:space="preserve"
   inkscape:version="1.2.1 (9c6d41e410, 2022-07-14)"
   sodipodi:docname="logo4.svg"
   xmlns:inkscape="http://www.inkscape.org/namespaces/inkscape"
   xmlns:sodipodi="http://sodipodi.sourceforge.net/DTD/sodipodi-0.dtd"
   xmlns:xlink="http://www.w3.org/1999/xlink"
   xmlns="http://www.w3.org/2000/svg"
   xmlns:svg="http://www.w3.org/2000/svg"><sodipodi:namedview
     id="namedview11"
     pagecolor="#ffffff"
     bordercolor="#000000"
     borderopacity="0.25"
     inkscape:showpageshadow="2"
     inkscape:pageopacity="0.0"
     inkscape:pagecheckerboard="0"
     inkscape:deskcolor="#d1d1d1"
     showgrid="false"
     inkscape:zoom="0.88918678"
     inkscape:cx="82.097487"
     inkscape:cy="-168.69347"
     inkscape:window-width="1920"
     inkscape:window-height="1046"
     inkscape:window-x="-11"
     inkscape:window-y="-11"
     inkscape:window-maximized="1"
     inkscape:current-layer="svg5" /><defs
     id="defs2"><linearGradient
       id="linearGradient9268"><stop
         style="stop-color:#202cf7;stop-opacity:1"
         offset="0"
         id="stop9264" /><stop
         style="stop-color:#7df5d9;stop-opacity:1"
         offset="1"
         id="stop9266" /></linearGradient><linearGradient
       xlink:href="#linearGradient9268"
       id="linearGradient9270"
       x1="40.277122"
       y1="41.327831"
       x2="90.360855"
       y2="139.74411"
       gradientUnits="userSpaceOnUse"
       gradientTransform="matrix(1.0595447,0,0,1,-7.7303371,-27.668632)" /></defs><g
     id="layer1"
     transform="matrix(1.4999091,0,0,1.4890995,-3.9732341,-6.5764383)"><path
       id="rect554"
       style="fill:url(#linearGradient9270);fill-opacity:1;stroke-width:0.272775;stroke-dasharray:none"
       d="M -1.0507078,-0.35023608 H 210.4709 L 210.842,55.337272 -1.0507078,105.421 Z"
       sodipodi:nodetypes="ccccc" /><path
       style="fill:#ffffff;stroke-width:0.0962535"
       d="m 81.517848,42.148064 c -0.109746,-0.139467 -0.199481,-0.306904 -0.199481,-0.372034 0,-0.219156 0.397116,-0.62565 0.611216,-0.62565 0.364405,0 0.640068,0.265376 0.640068,0.616189 0,0.617089 -0.674138,0.861607 -1.051803,0.381495 z m 1.436817,0.06111 c -0.105841,-0.105862 -0.192515,-0.300791 -0.192515,-0.433139 0,-0.132353 0.08659,-0.327263 0.192515,-0.433144 0.556775,-0.556763 1.364708,0.194224 0.908948,0.844865 -0.190699,0.272245 -0.647348,0.283007 -0.908948,0.02138 z m 1.443806,0 c -0.105841,-0.105862 -0.192514,-0.300791 -0.192514,-0.433139 0,-0.132353 0.08659,-0.327263 0.192514,-0.433144 0.105841,-0.105862 0.300802,-0.192514 0.433142,-0.192514 0.13244,0 0.32727,0.08663 0.43314,0.192514 0.10585,0.105862 0.19252,0.300793 0.19252,0.433144 0,0.132354 -0.0866,0.327262 -0.19252,0.433139 -0.10584,0.105861 -0.30079,0.192514 -0.43314,0.192514 -0.13241,0 -0.327265,-0.08663 -0.433142,-0.192514 z m 1.410602,0.01647 c -0.37708,-0.416669 -0.0623,-1.12185 0.47238,-1.058424 0.33581,0.03985 0.6638,0.462307 0.57534,0.741045 -0.15509,0.488573 -0.73406,0.663968 -1.04772,0.317379 z m -11.851761,-0.72481 c -0.259333,-0.189644 -0.236666,-0.718674 0.0404,-0.943035 0.120511,-0.09763 0.296248,-0.177506 0.390398,-0.177506 0.09406,0 0.269835,0.07988 0.390399,0.177506 0.247284,0.20024 0.296797,0.681293 0.0951,0.924281 -0.153061,0.184346 -0.675212,0.195048 -0.916311,0.01858 z m 9.420629,-1.024288 c 0.02727,-0.07941 0.222903,-0.75078 0.434679,-1.491931 0.211774,-0.741152 0.62512,-2.053688 0.918573,-2.916741 0.29346,-0.863059 0.53356,-1.591386 0.53356,-1.618496 0,-0.04036 -4.291651,-2.15438 -4.373582,-2.15438 -0.01351,0 -0.05248,0.400653 -0.08606,0.890342 -0.109746,1.601265 -0.31002,1.926173 -1.556193,2.524947 -1.094055,0.525685 -4.702184,1.686143 -5.242598,1.686143 -0.147932,0 1.950119,-1.586962 3.78734,-2.864815 l 1.047341,-0.728452 -0.06869,-1.98373 c -0.06033,-1.743751 -0.04891,-2.032964 0.09425,-2.390751 0.187976,-0.469842 0.636114,-0.887577 0.952135,-0.887577 0.555142,0 2.009397,0.661267 3.280312,1.49161 1.804635,1.179042 3.922785,3.049844 4.056565,3.582876 0.20853,0.830809 -1.11316,3.43198 -3.061836,6.025926 -0.704051,0.937195 -0.782433,1.028628 -0.715845,0.835029 z M 73.143792,40.222904 c -0.245327,-0.311896 -0.25204,-0.526437 -0.02523,-0.806541 0.364357,-0.44995 1.077048,-0.156165 1.077048,0.443969 0,0.587818 -0.688063,0.824999 -1.051803,0.362572 z m -0.777015,-1.190109 c -0.105841,-0.105862 -0.192514,-0.300789 -0.192514,-0.433134 0,-0.132354 0.08659,-0.327266 0.192514,-0.433147 0.105841,-0.105861 0.300801,-0.192514 0.433144,-0.192514 0.132438,0 0.32727,0.08663 0.433143,0.192514 0.10584,0.105862 0.192514,0.300791 0.192514,0.433147 0,0.132353 -0.08659,0.327257 -0.192514,0.433134 -0.105841,0.105861 -0.300783,0.192514 -0.433143,0.192514 -0.132416,0 -0.327253,-0.08663 -0.433144,-0.192514 z M 71.596754,37.87776 c -0.379458,-0.379454 -0.117936,-1.155044 0.389391,-1.155044 0.256061,0 0.669401,0.416044 0.669401,0.673775 0,0.257737 -0.41334,0.673777 -0.669401,0.673777 -0.108225,0 -0.283502,-0.08663 -0.389391,-0.192515 z m 26.084709,-4.042648 v -2.887604 h 1.01067 1.01066 v 2.887604 2.887604 h -1.01066 -1.01067 z m 2.502587,0.821766 v -2.07306 h 0.81815 c 0.80853,0 0.81816,0.003 0.81816,0.240634 0,0.304665 0.051,0.300356 0.56455,-0.04762 0.95103,-0.644473 2.0525,-0.476548 2.56005,0.390285 0.16651,0.284484 0.18929,0.510591 0.19252,1.91501 l 0.003,1.592448 -0.89036,0.02767 -0.89034,0.02767 v -1.248641 c 0,-1.215252 -0.0849,-1.710593 -0.31884,-1.859325 -0.22265,-0.141557 -0.61287,-0.07268 -0.81658,0.144133 -0.18757,0.19967 -0.20887,0.342515 -0.23334,1.564121 l -0.0269,1.344381 -0.89034,0.02767 -0.89035,0.02767 z m 5.19769,-0.821766 v -2.887604 h 0.9144 0.91442 v 2.887604 2.887604 h -0.91442 -0.9144 z m 2.13976,0.79409 0.0259,-2.093513 h 0.86627 0.86628 l 0.0259,2.093513 0.0259,2.093514 h -0.91815 -0.91817 z m 2.19164,0.02767 V 32.58381 h 0.81814 c 0.80855,0 0.81817,0.003 0.81817,0.240634 0,0.304667 0.0511,0.300358 0.56456,-0.04762 0.95103,-0.644473 2.0525,-0.476551 2.56005,0.390283 0.16651,0.284484 0.18929,0.510591 0.19248,1.915012 l 0.003,1.592444 -0.89033,0.02767 -0.89033,0.02767 v -1.248642 c 0,-1.215253 -0.0849,-1.710597 -0.31887,-1.859327 -0.22266,-0.141557 -0.61288,-0.07268 -0.81656,0.144132 -0.1876,0.19967 -0.2089,0.342513 -0.23336,1.564122 l -0.0267,1.34438 -0.89035,0.02767 -0.89032,0.02767 z m 6.88013,1.898608 c -0.92037,-0.329976 -1.37974,-0.831974 -1.5392,-1.682006 -0.0944,-0.503364 0.16615,-1.309465 0.55086,-1.703492 0.54017,-0.553379 1.04493,-0.724599 2.14538,-0.727778 0.85592,-0.0025 1.02161,0.02622 1.49584,0.259141 0.76488,0.375648 1.24738,1.135357 1.24738,1.964019 v 0.324783 h -1.78068 c -1.51868,0 -1.7807,0.02115 -1.7807,0.144365 0,0.07941 0.0866,0.231011 0.19252,0.336887 0.23331,0.23332 0.92908,0.262782 1.20884,0.05117 0.28772,-0.217639 1.96751,-0.157157 1.96751,0.07086 0,0.160345 -0.67134,0.740285 -1.04456,0.902348 -0.55101,0.239254 -2.06757,0.273239 -2.6632,0.05967 z m 2.02156,-2.332525 c 0.0981,-0.158719 -0.22984,-0.670674 -0.46793,-0.730427 -0.43471,-0.109092 -0.85095,-0.0051 -1.04999,0.262883 -0.32798,0.441316 -0.1802,0.560968 0.69283,0.560968 0.42204,0 0.79336,-0.04205 0.82509,-0.09343 z m -47.532554,0.68744 c -0.211432,-0.233636 -0.202604,-0.717487 0.0171,-0.915979 0.385796,-0.349135 1.003079,-0.06215 1.003079,0.466351 0,0.536595 -0.672692,0.833181 -1.0198,0.449628 z m 1.428025,0.04294 c -0.122221,-0.0894 -0.182023,-0.251092 -0.182023,-0.492547 0,-0.409253 0.214282,-0.625648 0.619497,-0.625648 0.32906,0 0.57406,0.274155 0.57406,0.64237 0,0.518351 -0.580143,0.791255 -1.011534,0.475825 z m 1.353868,-0.08083 c -0.326589,-0.466277 -0.06459,-1.037376 0.475803,-1.037376 0.227731,0 0.371139,0.06447 0.475821,0.213915 0.326588,0.466273 0.06459,1.037369 -0.475821,1.037369 -0.22773,0 -0.371122,-0.06445 -0.475803,-0.213913 z m 1.443808,0 c -0.33968,-0.484957 -0.07245,-1.037376 0.501998,-1.037376 0.536887,0 0.794792,0.670955 0.406948,1.058791 -0.261581,0.261589 -0.718266,0.250828 -0.908946,-0.02138 z M 63.478246,34.140374 c -0.216074,-0.23876 -0.200621,-0.64891 0.03325,-0.882764 0.259829,-0.259827 0.536581,-0.242201 0.831757,0.05296 0.191754,0.191776 0.231228,0.302209 0.180398,0.504786 -0.03578,0.142634 -0.110295,0.313704 -0.165326,0.380174 -0.150655,0.18158 -0.696703,0.147341 -0.879974,-0.05518 z m 9.85817,-2.485093 c 0.26017,-0.89219 0.700353,-2.290038 0.978179,-3.106326 0.414942,-1.219098 0.479504,-1.492705 0.361526,-1.532025 -0.0791,-0.02632 -0.991096,-0.469057 -2.02688,-0.983845 L 70.766,25.097111 70.645847,25.928803 c -0.135499,0.93773 -0.394764,1.609292 -0.70814,1.834532 -0.673986,0.48442 -1.941717,1.052797 -3.297955,1.478632 -1.207208,0.379042 -3.045658,0.857678 -3.097027,0.806314 -0.05676,-0.05672 2.206266,-1.766935 3.712963,-2.806031 l 1.097194,-0.756687 -0.0658,-1.994027 c -0.0738,-2.238924 -0.01541,-2.561031 0.549962,-3.036835 0.271367,-0.228327 0.355391,-0.247254 0.902812,-0.203322 1.354958,0.108775 3.872916,1.712098 6.01191,3.828149 1.083061,1.071458 1.178797,1.304748 0.902826,2.199942 -0.346525,1.124068 -1.460951,3.02157 -2.824277,4.808843 -1.028457,1.348261 -1.016406,1.358834 -0.493886,-0.433043 z m -10.57357,1.356237 c -0.314269,-0.220122 -0.301242,-0.847303 0.02206,-1.059098 0.422797,-0.277022 0.919123,0.03871 0.919123,0.584703 0,0.335291 -0.267312,0.624234 -0.577522,0.624234 -0.08232,0 -0.245941,-0.06744 -0.363599,-0.149832 z m -0.887698,-1.293966 c -0.397121,-0.397124 -0.0998,-1.05879 0.475808,-1.05879 0.318907,0 0.582989,0.293105 0.582989,0.64707 0,0.290111 -0.325256,0.604226 -0.625656,0.604226 -0.132354,0 -0.327262,-0.08663 -0.433141,-0.192514 z m 45.624162,-0.336874 v -0.529393 h 0.91442 0.9144 v 0.529393 0.529393 h -0.9144 -0.91442 z M 61.071912,30.482727 c -0.344389,-0.380542 -0.05391,-1.075274 0.449572,-1.075274 0.267725,0 0.642425,0.370073 0.642425,0.634501 0,0.10392 -0.06744,0.285213 -0.149832,0.402868 -0.188904,0.269693 -0.713303,0.290787 -0.942158,0.03791 z M 83.724707,27.922345 C 82.429504,27.771352 80.6648,27.462702 79.441419,27.173177 l -0.866289,-0.205011 1.395678,-0.222305 c 3.13665,-0.499606 5.324495,-0.735972 6.902795,-0.745744 1.46456,-0.0089 1.57321,0.003 1.76388,0.192768 0.11179,0.111329 0.22568,0.371231 0.25322,0.577524 0.0687,0.514857 -0.20827,0.852479 -0.86394,1.053321 -0.68796,0.21071 -2.9045,0.261526 -4.302056,0.0986 z m 6.687606,-1.055582 c -0.56979,-0.178266 -0.89143,-0.42122 -1.1566,-0.873694 -0.48488,-0.82741 -0.39762,-1.786898 0.22532,-2.477251 0.43343,-0.480344 0.82136,-0.653605 1.46342,-0.653605 0.91224,0 1.70901,0.64251 1.92781,1.554565 0.35294,1.4712 -1.0673,2.885681 -2.45995,2.449985 z M 55.270104,22.897492 c -0.159563,-0.03551 -0.217406,-0.141916 -0.264696,-0.486928 -0.09843,-0.718249 -0.120659,-0.690596 0.508761,-0.633522 0.523366,0.04745 0.590088,0.0308 0.827372,-0.206467 0.323198,-0.323198 0.317353,-0.347478 -0.491806,-2.04246 -0.782727,-1.639616 -1.097348,-2.342939 -1.097348,-2.453084 0,-0.04638 0.411486,-0.08429 0.914404,-0.08429 0.502929,0 0.914414,0.01203 0.914414,0.02696 0,0.148059 0.8681,2.523972 0.929181,2.543101 0.04481,0.01393 0.230749,-0.461027 0.413192,-1.055692 0.507051,-1.652718 0.387908,-1.514348 1.304005,-1.514348 0.432666,0 0.811036,0.0244 0.840825,0.05414 0.02981,0.02978 -0.225845,0.733646 -0.568081,1.564121 -0.342235,0.830479 -0.750128,1.834815 -0.90642,2.231859 -0.70046,1.779408 -0.996611,2.04791 -2.295346,2.081022 -0.45335,0.01161 -0.916155,5.83e-4 -1.028457,-0.02442 z m -31.006028,-0.09721 c -0.09239,-0.03869 -0.120301,-0.707728 -0.120301,-2.881852 v -2.831456 h 0.866281 0.86628 v 0.252371 c 0,0.244757 0.0065,0.247567 0.216583,0.09305 0.119118,-0.0876 0.407125,-0.249391 0.640027,-0.359493 0.82386,-0.389468 1.847054,-0.03641 2.316823,0.799415 0.270673,0.481596 0.371857,1.519611 0.199121,2.042939 -0.358859,1.087362 -1.606024,1.605679 -2.685227,1.115977 -0.230779,-0.104721 -0.45666,-0.190403 -0.501969,-0.190403 -0.0453,0 -0.09472,0.443969 -0.10983,0.986598 l -0.02742,0.986597 -0.770026,0.01836 c -0.423519,0.01013 -0.824174,-0.0042 -0.890349,-0.03209 z m 3.026643,-2.946021 c 0.659781,-0.726604 0.06309,-1.918677 -0.787128,-1.572502 -0.563341,0.229362 -0.706574,0.988141 -0.281825,1.492927 0.311812,0.370569 0.773511,0.404937 1.068953,0.07956 z M 14.08279,21.105559 c -0.02453,-0.0662 -0.05562,-1.073229 -0.06918,-2.237894 l -0.02459,-2.117578 -0.986601,-0.02744 -0.986598,-0.02742 v -0.670405 -0.670408 h 3.080112 3.080114 v 0.673772 0.673777 h -0.906539 c -0.498595,0 -0.975051,0.02628 -1.058788,0.05843 -0.132692,0.05091 -0.15226,0.341413 -0.15226,2.261956 v 2.203535 h -0.965556 c -0.684509,0 -0.978526,-0.03504 -1.010117,-0.120301 z m 5.89676,-0.04644 c -1.948683,-0.723179 -2.131323,-3.032438 -0.316669,-4.003936 0.541575,-0.289941 2.311894,-0.306085 2.875414,-0.02622 0.8713,0.432723 1.254218,1.102037 1.200972,2.099248 -0.0453,0.848633 -0.379057,1.349635 -1.167749,1.75299 -0.713959,0.365129 -1.873102,0.444698 -2.591968,0.177907 z m 1.632838,-1.132972 c 0.453232,-0.317455 0.513525,-1.216513 0.115529,-1.722498 -0.271896,-0.345659 -0.916777,-0.355713 -1.232889,-0.01921 -0.420816,0.44794 -0.353365,1.412867 0.122053,1.745858 0.2594,0.181685 0.732837,0.179722 0.995328,-0.0042 z m 9.868163,1.158309 c -1.124946,-0.35129 -1.741431,-1.234568 -1.628099,-2.332667 0.07424,-0.719472 0.434781,-1.235942 1.128552,-1.616696 0.494626,-0.271453 0.5896,-0.288759 1.584941,-0.288759 0.9509,0 1.102465,0.02453 1.487434,0.240635 1.297179,0.72821 1.539771,2.363397 0.500088,3.370789 -0.72835,0.705732 -1.993536,0.963754 -3.072916,0.626698 z m 1.62219,-1.294984 c 0.241903,-0.241897 0.281358,-0.354667 0.281358,-0.804099 0,-0.693533 -0.284111,-1.032124 -0.866057,-1.032124 -0.607971,0 -0.866506,0.312053 -0.866506,1.045857 0,0.522058 0.02649,0.595629 0.296147,0.822532 0.401128,0.337529 0.796374,0.326521 1.155058,-0.03219 z m 2.495192,-1.451209 v -2.887606 h 0.914409 0.914407 v 2.887606 2.887606 h -0.914407 -0.914409 z m 3.687342,2.694115 c -1.014581,-0.332052 -1.505385,-0.988019 -1.511631,-2.020338 -0.008,-1.330084 0.794925,-2.106474 2.269034,-2.19392 1.475472,-0.08754 2.263881,0.169358 2.765193,0.900975 0.332093,0.484659 0.238065,0.581138 -0.632032,0.648501 -0.674891,0.05225 -0.769852,0.03855 -0.899303,-0.129757 -0.30594,-0.397768 -1.125449,-0.400394 -1.483496,-0.0049 -0.225961,0.249688 -0.303389,0.895843 -0.15133,1.262944 0.141683,0.342036 0.532956,0.574803 0.96625,0.574803 0.216741,0 0.396939,-0.09375 0.632106,-0.32894 l 0.328933,-0.328935 0.716396,0.06844 c 0.394021,0.03764 0.743734,0.09577 0.777143,0.129166 0.202457,0.202457 -0.452896,1.039345 -1.054634,1.346701 -0.585007,0.298808 -1.926082,0.33581 -2.722629,0.07511 z m 5.001527,0.0042 c -0.388446,-0.176323 -0.794919,-0.662373 -0.795719,-0.95147 -7.37e-4,-0.279179 0.328079,-0.800152 0.590854,-0.936039 0.15207,-0.07863 0.785117,-0.246866 1.40676,-0.373837 1.314267,-0.268435 1.467153,-0.318858 1.467153,-0.483875 0,-0.413914 -1.002161,-0.515556 -1.399821,-0.14198 -0.19813,0.186098 -0.307232,0.206067 -0.948969,0.173685 -0.398819,-0.02026 -0.769318,-0.08081 -0.823321,-0.134802 -0.183438,-0.183416 0.223249,-0.746206 0.726433,-1.005289 0.428127,-0.220444 0.572542,-0.240633 1.721208,-0.240633 1.06343,0 1.311398,0.02922 1.632665,0.192515 0.701921,0.356712 0.769335,0.539132 0.829464,2.244427 0.0293,0.830205 0.08805,1.58526 0.130622,1.677905 0.07048,0.153378 0.0032,0.16845 -0.753444,0.16845 -0.79441,0 -0.83479,-0.01034 -0.921005,-0.237158 l -0.09016,-0.237155 -0.412781,0.235999 c -0.54218,0.309981 -1.730958,0.334808 -2.359929,0.04931 z m 2.121917,-0.784776 c 0.316574,-0.161885 0.542597,-0.486559 0.544991,-0.782828 0.0025,-0.319844 -0.06951,-0.325486 -0.896302,-0.07012 -0.448961,0.138665 -0.647948,0.251269 -0.692587,0.39191 -0.138454,0.436243 0.522007,0.72794 1.043898,0.461038 z m 2.857216,-1.095653 v -2.069448 h 0.86628 c 0.859866,0 0.866283,0.0018 0.866283,0.240632 0,0.278445 0.112574,0.308738 0.301038,0.08102 0.209507,-0.253168 0.86552,-0.509723 1.309259,-0.512028 0.607674,-0.003 1.141352,0.248168 1.395777,0.657309 0.201,0.323236 0.220974,0.483612 0.250431,2.011614 l 0.032,1.660374 h -0.922359 -0.922361 v -1.374258 c 0,-1.50128 -0.08796,-1.802109 -0.526976,-1.802109 -0.68325,0 -0.820571,0.321355 -0.820571,1.920288 v 1.256079 h -0.914407 -0.914405 z m 24.64202,1.583031 c -1.133941,-0.1081 -3.487784,-0.503611 -4.765674,-0.800754 -1.136564,-0.264281 -1.222001,-0.230217 1.588201,-0.633319 2.997065,-0.429909 4.551041,-0.592708 5.840895,-0.611911 1.054499,-0.01562 1.199727,0.0027 1.44166,0.183417 0.320281,0.239125 0.427502,0.659806 0.282514,1.108411 -0.09355,0.289453 -0.176112,0.349834 -0.733416,0.536205 -0.757653,0.253391 -2.310827,0.346032 -3.65418,0.217961 z m 5.725972,-1.204462 c -0.679783,-0.352276 -1.203172,-1.158081 -1.203172,-1.852414 0,-0.703916 0.554494,-1.580757 1.190472,-1.882553 0.403113,-0.19129 1.206459,-0.203596 1.633875,-0.02501 0.612919,0.256088 1.219398,1.202668 1.21776,1.900639 -0.0017,0.717355 -0.584372,1.612888 -1.223606,1.880487 -0.416115,0.174213 -1.259651,0.163152 -1.615329,-0.02115 z"
       id="path189" /></g></svg>
