<?xml version="1.0" encoding="UTF-8" standalone="no"?>
<!-- Created with Inkscape (http://www.inkscape.org/) -->

<svg
   width="174.62498mm"
   height="73.246574mm"
   viewBox="0 0 174.62498 73.246574"
   version="1.1"
   id="svg231"
   sodipodi:docname="path205.svg"
   inkscape:version="1.2.1 (9c6d41e410, 2022-07-14)"
   xmlns:inkscape="http://www.inkscape.org/namespaces/inkscape"
   xmlns:sodipodi="http://sodipodi.sourceforge.net/DTD/sodipodi-0.dtd"
   xmlns="http://www.w3.org/2000/svg"
   xmlns:svg="http://www.w3.org/2000/svg">
  <sodipodi:namedview
     id="namedview233"
     pagecolor="#ffffff"
     bordercolor="#000000"
     borderopacity="0.25"
     inkscape:showpageshadow="2"
     inkscape:pageopacity="0.0"
     inkscape:pagecheckerboard="0"
     inkscape:deskcolor="#d1d1d1"
     inkscape:document-units="mm"
     showgrid="false"
     inkscape:zoom="2.2863638"
     inkscape:cx="313.16101"
     inkscape:cy="173.63816"
     inkscape:window-width="1920"
     inkscape:window-height="1046"
     inkscape:window-x="-11"
     inkscape:window-y="-11"
     inkscape:window-maximized="1"
     inkscape:current-layer="layer1" />
  <defs
     id="defs228" />
  <g
     inkscape:label="Layer 1"
     inkscape:groupmode="layer"
     id="layer1"
     transform="translate(-11.804243,-12.059497)">
    <path
       style="fill:#000000;stroke-width:0.264583"
       d="m 157.19315,64.755485 c -0.89433,-0.618464 -1.68275,-1.333003 -1.75205,-1.587865 -0.0693,-0.254863 -0.0282,-0.402949 0.0913,-0.329081 0.11952,0.07387 0.27028,-0.01526 0.33502,-0.198072 0.0788,-0.222574 0.63259,0.02655 1.67625,0.754116 1.13479,0.791098 1.58129,1.276658 1.64225,1.785937 0.046,0.384694 -0.0176,0.699444 -0.14151,0.699444 -0.12388,0 -0.95694,-0.506016 -1.85126,-1.124479 z"
       id="path181"
       sodipodi:nodetypes="ssssscss" />
    <path
       style="fill:#000000;stroke-width:0.264583"
       d="m 155.473,63.510332 c 0,-0.0549 0.18132,-0.25037 0.40293,-0.4343 0.33691,-0.2796 0.37562,-0.26323 0.23627,0.0999 -0.14231,0.37088 -0.6392,0.63083 -0.6392,0.33441 z"
       id="path173"
       sodipodi:nodetypes="sssss" />
    <path
       style="fill:#000000;stroke-width:0.264583"
       d="m 68.601467,40.415091 c -0.09701,-0.09701 -0.255765,-0.09701 -0.352779,0 -0.09701,0.09701 -0.01764,0.17639 0.176389,0.17639 0.194027,0 0.273402,-0.07938 0.17639,-0.17639 z"
       id="path169"
       sodipodi:nodetypes="ssss" />
    <path
       style="fill:#000000;stroke-width:0.264583"
       d="m 132.98341,85.016182 c 0,-0.15944 0.21721,-0.60593 0.48268,-0.99219 0.26547,-0.38627 0.74213,-1.13375 1.05926,-1.66107 l 0.57658,-0.95877 -2.44832,-1.4042 c -1.34658,-0.7723 -5.69034,-3.34718 -9.65282,-5.72196 -3.96247,-2.37477 -7.29772,-4.31776 -7.41168,-4.31776 -0.11395,0 -1.87255,2.79451 -3.908,6.21002 -2.03545,3.41552 -3.78785,6.21348 -3.89422,6.21771 -0.10637,0.004 -0.26804,-0.28975 -0.35928,-0.65327 -0.13321,-0.53074 0.51738,-1.81227 3.30225,-6.50472 1.90747,-3.21407 3.46814,-5.92744 3.46814,-6.02972 0,-0.10227 -3.00633,-1.92367 -6.68073,-4.04755 -3.6744,-2.12388 -8.846244,-5.136143 -11.492994,-6.693925 l -4.81225,-2.83233 -4.283136,4.388765 c -2.355726,2.41382 -4.491649,4.38877 -4.746495,4.38877 -0.254847,0 -0.619607,-0.18827 -0.810578,-0.41838 -0.300921,-0.36259 -0.04946,-0.69298 1.885834,-2.477839 1.228177,-1.132707 3.2116,-3.131891 4.407601,-4.442629 l 2.174554,-2.38316 -4.905141,-3.260439 c -3.977357,-2.64374 -4.953805,-3.188113 -5.162421,-2.878058 -0.141504,0.210307 -0.744498,1.334878 -1.339985,2.499045 -1.627785,3.182281 -2.970659,5.062312 -5.338897,7.474479 -1.818918,1.852657 -2.274004,2.182812 -3.008797,2.182812 -0.476157,0 -0.865738,-0.102973 -0.865738,-0.228827 0,-0.125857 1.056026,-1.286717 2.346727,-2.579688 1.290702,-1.292973 2.883067,-3.184297 3.538591,-4.202943 1.194393,-1.856012 3.481287,-6.214594 3.325672,-6.338384 -0.04558,-0.03625 -1.610119,-0.871236 -3.476765,-1.855513 -3.322516,-1.751957 -3.467203,-1.799984 -6.879167,-2.283539 -4.26439,-0.604366 -5.5998,-0.620651 -7.6356,-0.09312 -2.70094,0.699884 -5.359942,2.098707 -11.724666,6.168004 -38.7857522,29.594 -62.525624,41.728353 -35.596714,22.762922 11.353493,-8.003696 33.34257,-24.821245 36.919631,-27.031736 3.881157,-2.398416 7.268892,-4.02749 9.525,-4.580326 3.155664,-0.773266 5.063008,-1.995276 5.560422,-3.562493 0.103738,-0.326853 -0.406834,-1.521455 -1.481791,-3.466994 -1.918136,-3.471593 -3.495746,-6.848231 -3.29389,-7.050087 0.07794,-0.07794 0.705035,-0.03248 1.393536,0.101028 l 1.251821,0.242742 2.385991,4.426471 c 2.038167,3.781184 2.765322,4.852665 4.988065,7.35004 l 2.602069,2.923572 2.111134,-1.926085 c 1.161121,-1.059344 2.707317,-2.450102 3.435988,-3.090568 l 1.324856,-1.164487 0.535281,0.535279 0.535279,0.535281 -1.413021,1.290664 c -0.777161,0.709866 -2.175745,2.017307 -3.107965,2.905426 l -1.694947,1.61476 3.678377,1.939216 c 2.023108,1.066567 6.000097,3.506856 8.837753,5.42286 4.698602,3.172531 13.832556,8.697835 23.812506,14.404644 2.11005,1.20659 7.88458,4.60534 12.83229,7.55277 14.60298,8.69926 18.48219,10.9483 18.67664,10.82812 8.7835,-13.891467 16.83847,-29.75555 25.37163,-43.112547 0.56116,-0.873124 1.91948,-3.075781 3.01851,-4.894791 1.09903,-1.81901 2.29982,-3.802845 2.66842,-4.408522 l 0.67018,-1.101231 -2.91155,-2.138796 c -1.60135,-1.176337 -2.91154,-2.266866 -2.91154,-2.423397 0,-0.156531 0.17951,-0.464107 0.3989,-0.683504 0.35548,-0.355482 0.71647,-0.165616 3.31639,1.744262 l 2.9175,2.143165 0.45391,-0.811585 c 0.73343,-1.311354 10.32759,-14.397032 10.62937,-14.497626 0.16023,-0.05341 0.27559,0.348171 0.27559,0.959413 0,0.835104 -0.25413,1.397296 -1.23589,2.734028 -0.67974,0.925514 -1.38305,1.801815 -1.56292,1.947335 -0.17987,0.145521 -0.7763,0.978959 -1.3254,1.852084 -0.5491,0.873125 -1.79863,2.659062 -2.77674,3.968749 -0.97811,1.309688 -3.71206,5.595938 -6.07545,9.525 -2.36338,3.929062 -4.45641,7.387328 -4.65118,7.685032 -0.32804,0.501401 -0.1992,0.676846 1.74875,2.38125 1.1566,1.011983 2.10686,1.921515 2.1117,2.021181 0.005,0.09967 -0.11124,0.496927 -0.25795,0.882803 -0.30298,1.59452 -1.80889,-0.698473 -2.47968,-1.307462 -2.45681,-2.230483 -2.3004,-2.233708 -3.45769,0.07132 -10.08286,18.022958 -7.88548,13.3683 -22.63305,38.509419 l 1.32172,0.76309 c 0.72694,0.4197 1.32171,0.87232 1.32171,1.00583 0,0.13351 -1.10132,0.24244 -2.44739,0.24207 -2.30084,-5.3e-4 -2.53454,-0.0532 -3.90261,-0.87717 -0.80036,-0.48206 -2.01027,-1.2013 -2.68867,-1.5983 l -1.23347,-0.72182 -0.98695,1.59898 c -0.75577,1.22444 -1.13308,1.59899 -1.6108,1.59899 -0.34312,0 -0.62386,-0.13045 -0.62386,-0.28989 z"
       id="path205"
       sodipodi:nodetypes="ssscsssscssssscssssscssssssssssssccsssssscsscsscccsscssscccsscsssscsssssssssscccccsscsscssss" />
    <ellipse
       style="fill:#ff0000;stroke-width:0.264999"
       id="path510"
       cx="134.81708"
       cy="82.360809"
       rx="1.7358348"
       ry="1.6779736" />
    <ellipse
       style="fill:#ff0000;stroke-width:0.264999"
       id="path514"
       cx="113.58202"
       cy="70.730713"
       rx="2.1408629"
       ry="2.1987243" />
    <ellipse
       style="fill:#ff0000;stroke-width:0.264999"
       id="path516"
       cx="88.817451"
       cy="56.265423"
       rx="2.3723075"
       ry="2.0830019" />
    <ellipse
       style="fill:#ff0000;stroke-width:0.264999"
       id="path518"
       cx="78.17099"
       cy="48.801334"
       rx="1.793696"
       ry="1.9094183" />
    <ellipse
       style="fill:#00ff00;stroke-width:0.264999"
       id="path572"
       cx="156.515"
       cy="63.787376"
       rx="1.3308066"
       ry="1.5043901" />
    <ellipse
       style="fill:#00ff00;stroke-width:0.264999"
       id="path574"
       cx="169.47591"
       cy="42.899494"
       rx="1.446529"
       ry="1.6779736" />
    <ellipse
       style="fill:#00ff00;stroke-width:0.264999"
       id="path586"
       cx="173.00543"
       cy="27.045538"
       rx="1.7358348"
       ry="1.446529" />
    <ellipse
       style="fill:#00ff00;stroke-width:0.264999"
       id="path588"
       cx="74.062851"
       cy="41.221519"
       rx="1.7358348"
       ry="1.1572231" />
    <ellipse
       style="fill:#00ff00;stroke-width:0.264999"
       id="path590"
       cx="65.557266"
       cy="38.55991"
       rx="1.446529"
       ry="1.1572231" />
    <ellipse
       style="fill:#00ff00;stroke-width:0.264999"
       id="path590-2"
       cx="68.276741"
       cy="37.865574"
       rx="1.446529"
       ry="1.1572231" />
    <rect
       style="fill:#00ffff;stroke-width:0.133071"
       id="rect706-8"
       width="3.12451"
       height="3.1244991"
       x="143.78554"
       y="82.707985"
       ry="0" />
  </g>
</svg>
