<?xml version="1.0" encoding="UTF-8" standalone="no"?>
<!DOCTYPE svg PUBLIC "-//W3C//DTD SVG 1.1//EN" "http://www.w3.org/Graphics/SVG/1.1/DTD/svg11.dtd">
<svg width="503px" height="252px" version="1.1" xmlns="http://www.w3.org/2000/svg" xmlns:xlink="http://www.w3.org/1999/xlink" xml:space="preserve" xmlns:serif="http://www.serif.com/" style="fill-rule:evenodd;clip-rule:evenodd;stroke-miterlimit:10;">
    <g transform="matrix(1,0,0,1,-0.000416667,0.63747)">
        <g id="Layer-1" serif:id="Layer 1" transform="matrix(0.954458,0,0,0.954458,0.000321221,0.345312)">
            <g transform="matrix(1,0,0,1,0,132.571)">
                <rect x="0.766" y="4.673" width="116.387" height="119.561" style="fill:rgb(245,130,31);"/>
            </g>
            <g transform="matrix(1,0,0,1,238.536,105.73)">
                <path d="M0,-100.08L68.939,-100.08L68.939,-78.604L48,-78.604L48,0L20.939,0L20.939,-78.604L0,-78.604" style="fill:rgb(35,31,32);fill-rule:nonzero;"/>
            </g>
            <g transform="matrix(1,0,0,1,82.1961,105.377)">
                <path d="M0,-99.68L-18.336,-47.01L-40.633,-99.68L-65.642,-99.68L-82.196,0L-53.482,0L-46.96,-58.203L-24.493,0L-12.891,0L10.069,-58.203L19.159,0L45.115,0L28.31,-99.68L0,-99.68Z" style="fill:rgb(35,31,32);fill-rule:nonzero;"/>
            </g>
            <g transform="matrix(1,0,0,1,463.408,105.376)">
                <path d="M0,-99.679C21.801,-99.679 35.491,-91.099 36.057,-67.62C36.152,-63.67 35.222,-59.607 33.565,-55.452C31.9,-51.278 29.114,-47.488 25.214,-44.047C21.302,-40.597 21.177,-40.603 15.071,-39.212L45.194,0L14.37,0L-11.627,-38.681L-11.627,0L-37.643,0L-37.643,-99.679L0,-99.679ZM-11.697,-81.764L-11.697,-54.114L-6.326,-54.114C4.776,-54.114 10.382,-59.378 10.311,-68.974C10.276,-73.711 8.491,-76.983 5.174,-78.804C1.832,-80.64 -2.582,-81.764 -8.101,-81.764" style="fill:rgb(35,31,32);fill-rule:nonzero;"/>
            </g>
            <g transform="matrix(1,0,0,1,146.573,256.655)">
                <path d="M0,-119.018L46.231,-119.018C54.863,-119.018 62.178,-117.565 68.185,-114.648C74.16,-111.748 78.613,-108.027 81.481,-103.471C84.349,-98.913 85.77,-94.169 85.77,-89.236C85.77,-76.316 82.012,-70.708 70.699,-64.977C84.29,-58.812 93.624,-48.786 93.624,-34.901C93.624,-29.486 92.026,-24.092 88.826,-18.71C85.619,-13.317 80.709,-8.862 74.082,-5.307C67.467,-1.758 59.392,0 49.904,0L0,0L0,-119.018ZM31.757,-97.627L31.757,-73.18L37.611,-73.18C41.556,-73.18 44.798,-73.475 47.286,-74.064C49.798,-74.654 51.759,-75.914 53.166,-77.817C54.573,-79.721 55.277,-82.589 55.277,-86.395C54.699,-93.874 49.196,-97.627 38.817,-97.627L31.757,-97.627ZM31.757,-51.789L31.757,-21.391L42.285,-21.391C55.478,-21.391 62.061,-26.913 62.061,-37.957C61.911,-42.165 60.076,-45.516 56.508,-48.009C52.965,-50.529 48.642,-51.789 43.491,-51.789" style="fill:rgb(35,31,32);fill-rule:nonzero;"/>
            </g>
            <g transform="matrix(1,0,0,1,429.518,199.65)">
                <path d="M0,-5.733L-36.903,-62.947L1.907,-62.947L20.083,-31.576L39.943,-62.947L79.295,-62.947L37.172,-6.252L83.574,57.214L43.386,57.214L19.716,16.676L-10.029,57.214L-48.446,57.214" style="fill:rgb(35,31,32);fill-rule:nonzero;"/>
            </g>
            <g transform="matrix(1,0,0,1,316.286,261.37)">
                <path d="M0,-129.078C36.764,-129.078 66.749,-100.086 66.749,-64.539C66.749,-28.993 36.764,0 0,0C-36.764,0 -66.749,-28.993 -66.749,-64.539C-66.749,-100.086 -36.764,-129.078 0,-129.078M0,-101.018C20.78,-101.018 37.728,-84.631 37.728,-64.539C37.728,-44.447 20.78,-28.06 0,-28.06C-20.78,-28.06 -37.728,-44.447 -37.728,-64.539C-37.728,-84.631 -20.78,-101.018 0,-101.018" style="fill:rgb(35,31,32);"/>
            </g>
            <g transform="matrix(1,0,0,1,316.286,261.37)">
                <path d="M0,-129.078C36.764,-129.078 66.749,-100.086 66.749,-64.539C66.749,-28.993 36.764,0 0,0C-36.764,0 -66.749,-28.993 -66.749,-64.539C-66.749,-100.086 -36.764,-129.078 0,-129.078ZM0,-101.018C20.78,-101.018 37.728,-84.631 37.728,-64.539C37.728,-44.447 20.78,-28.06 0,-28.06C-20.78,-28.06 -37.728,-44.447 -37.728,-64.539C-37.728,-84.631 -20.78,-101.018 0,-101.018Z" style="fill:none;fill-rule:nonzero;stroke:rgb(35,31,32);stroke-width:0.23px;"/>
            </g>
            <g transform="matrix(1,0,0,1,363.037,111.123)">
                <path d="M0,-111.016C30.825,-111.016 55.966,-86.081 55.966,-55.508C55.966,-24.935 30.825,0 0,0C-30.825,0 -55.966,-24.935 -55.966,-55.508C-55.966,-86.081 -30.825,-111.016 0,-111.016M0,-86.883C17.423,-86.883 31.634,-72.789 31.634,-55.508C31.634,-38.227 17.423,-24.133 0,-24.133C-17.423,-24.133 -31.634,-38.227 -31.634,-55.508C-31.634,-72.789 -17.423,-86.883 0,-86.883" style="fill:rgb(35,31,32);"/>
            </g>
            <g transform="matrix(1,0,0,1,363.037,111.123)">
                <path d="M0,-111.016C30.825,-111.016 55.966,-86.081 55.966,-55.508C55.966,-24.935 30.825,0 0,0C-30.825,0 -55.966,-24.935 -55.966,-55.508C-55.966,-86.081 -30.825,-111.016 0,-111.016ZM0,-86.883C17.423,-86.883 31.634,-72.789 31.634,-55.508C31.634,-38.227 17.423,-24.133 0,-24.133C-17.423,-24.133 -31.634,-38.227 -31.634,-55.508C-31.634,-72.789 -17.423,-86.883 0,-86.883Z" style="fill:none;fill-rule:nonzero;stroke:rgb(35,31,32);stroke-width:0.23px;"/>
            </g>
            <g transform="matrix(1,0,0,1,183.353,111.123)">
                <path d="M0,-111.016C30.825,-111.016 55.966,-86.081 55.966,-55.508C55.966,-24.935 30.825,0 0,0C-30.825,0 -55.966,-24.935 -55.966,-55.508C-55.966,-86.081 -30.825,-111.016 0,-111.016M0,-86.883C17.423,-86.883 31.634,-72.789 31.634,-55.508C31.634,-38.227 17.423,-24.133 0,-24.133C-17.423,-24.133 -31.633,-38.227 -31.633,-55.508C-31.633,-72.789 -17.423,-86.883 0,-86.883" style="fill:rgb(35,31,32);"/>
            </g>
            <g transform="matrix(1,0,0,1,183.353,111.123)">
                <path d="M0,-111.016C30.825,-111.016 55.966,-86.081 55.966,-55.508C55.966,-24.935 30.825,0 0,0C-30.825,0 -55.966,-24.935 -55.966,-55.508C-55.966,-86.081 -30.825,-111.016 0,-111.016ZM0,-86.883C17.423,-86.883 31.634,-72.789 31.634,-55.508C31.634,-38.227 17.423,-24.133 0,-24.133C-17.423,-24.133 -31.633,-38.227 -31.633,-55.508C-31.633,-72.789 -17.423,-86.883 0,-86.883Z" style="fill:none;fill-rule:nonzero;stroke:rgb(35,31,32);stroke-width:0.23px;"/>
            </g>
            <g transform="matrix(1,0,0,1,510.235,11.275)">
                <path d="M0,10.801L0,0L4.592,0C5.746,0 6.583,0.098 7.106,0.292C7.63,0.486 8.049,0.83 8.364,1.325C8.678,1.823 8.834,2.389 8.834,3.028C8.834,3.838 8.595,4.509 8.12,5.037C7.645,5.563 6.93,5.897 5.983,6.033C6.455,6.31 6.845,6.611 7.152,6.941C7.459,7.27 7.871,7.854 8.392,8.694L9.712,10.801L7.104,10.801L5.527,8.45C4.966,7.61 4.584,7.082 4.378,6.863C4.172,6.644 3.953,6.496 3.722,6.413C3.49,6.332 3.126,6.292 2.623,6.292L2.183,6.292L2.183,10.801L0,10.801ZM2.183,4.567L3.795,4.567C4.841,4.567 5.495,4.524 5.756,4.436C6.015,4.348 6.219,4.195 6.367,3.979C6.513,3.762 6.589,3.493 6.589,3.169C6.589,2.804 6.49,2.513 6.297,2.289C6.103,2.065 5.829,1.924 5.475,1.864C5.298,1.841 4.768,1.828 3.883,1.828L2.183,1.828" style="fill:rgb(35,31,32);fill-rule:nonzero;"/>
            </g>
            <g transform="matrix(1,0,0,1,514.394,27.6545)">
                <path d="M0,-21.023C5.789,-21.023 10.511,-16.301 10.511,-10.512C10.511,-4.722 5.789,0 0,0C-5.79,0 -10.512,-4.722 -10.512,-10.512C-10.512,-16.301 -5.79,-21.023 0,-21.023M0,-19.019C4.686,-19.019 8.508,-15.197 8.508,-10.512C8.508,-5.826 4.686,-2.004 0,-2.004C-4.686,-2.004 -8.508,-5.826 -8.508,-10.512C-8.508,-15.197 -4.686,-19.019 0,-19.019" style="fill:rgb(35,31,32);"/>
            </g>
            <g transform="matrix(1,0,0,1,514.394,27.6545)">
                <path d="M0,-21.023C5.789,-21.023 10.511,-16.301 10.511,-10.512C10.511,-4.722 5.789,0 0,0C-5.79,0 -10.512,-4.722 -10.512,-10.512C-10.512,-16.301 -5.79,-21.023 0,-21.023ZM0,-19.019C4.686,-19.019 8.508,-15.197 8.508,-10.512C8.508,-5.826 4.686,-2.004 0,-2.004C-4.686,-2.004 -8.508,-5.826 -8.508,-10.512C-8.508,-15.197 -4.686,-19.019 0,-19.019Z" style="fill:none;fill-rule:nonzero;stroke:rgb(35,31,32);stroke-width:0.23px;"/>
            </g>
        </g>
    </g>
</svg>
