<?xml version="1.0" encoding="UTF-8" standalone="no"?>
<!-- Created with Inkscape (http://www.inkscape.org/) -->

<svg
   width="210mm"
   height="297mm"
   viewBox="0 0 210 297"
   version="1.1"
   id="svg31018"
   xmlns:inkscape="http://www.inkscape.org/namespaces/inkscape"
   xmlns:sodipodi="http://sodipodi.sourceforge.net/DTD/sodipodi-0.dtd"
   xmlns:xlink="http://www.w3.org/1999/xlink"
   xmlns="http://www.w3.org/2000/svg"
   xmlns:svg="http://www.w3.org/2000/svg">
  <sodipodi:namedview
     id="namedview31020"
     pagecolor="#ffffff"
     bordercolor="#000000"
     borderopacity="0.25"
     inkscape:showpageshadow="2"
     inkscape:pageopacity="0.0"
     inkscape:pagecheckerboard="0"
     inkscape:deskcolor="#d1d1d1"
     inkscape:document-units="mm"
     showgrid="false" />
  <defs
     id="defs31015">
    <linearGradient
       inkscape:collect="always"
       xlink:href="#linearGradient9268"
       id="linearGradient9270"
       x1="40.277122"
       y1="41.327831"
       x2="90.360855"
       y2="139.74411"
       gradientUnits="userSpaceOnUse"
       gradientTransform="matrix(1.0595447,0,0,1,-7.5552285,68.295986)" />
    <linearGradient
       inkscape:collect="always"
       id="linearGradient9268">
      <stop
         style="stop-color:#202cf7;stop-opacity:1"
         offset="0"
         id="stop9264" />
      <stop
         style="stop-color:#7df5d9;stop-opacity:1"
         offset="1"
         id="stop9266" />
    </linearGradient>
  </defs>
  <g
     inkscape:label="Layer 1"
     inkscape:groupmode="layer"
     id="layer1">
    <path
       id="rect554"
       style="fill:url(#linearGradient9270);fill-opacity:1;stroke-width:0.272775;stroke-dasharray:none"
       d="M -0.87559918,95.614382 H 210.64601 l 0.3711,55.687508 -211.89270918,50.08373 z"
       sodipodi:nodetypes="ccccc" />
    <path
       style="fill:#ffffff;stroke-width:0.0962535"
       d="m 81.692957,138.11268 c -0.109746,-0.13947 -0.199481,-0.3069 -0.199481,-0.37203 0,-0.21916 0.397116,-0.62565 0.611216,-0.62565 0.364405,0 0.640068,0.26537 0.640068,0.61619 0,0.61709 -0.674138,0.8616 -1.051803,0.38149 z m 1.436817,0.0611 c -0.105841,-0.10586 -0.192515,-0.30079 -0.192515,-0.43314 0,-0.13235 0.08659,-0.32726 0.192515,-0.43314 0.556775,-0.55676 1.364708,0.19422 0.908948,0.84486 -0.190699,0.27225 -0.647348,0.28301 -0.908948,0.0214 z m 1.443806,0 c -0.105841,-0.10586 -0.192514,-0.30079 -0.192514,-0.43314 0,-0.13235 0.08659,-0.32726 0.192514,-0.43314 0.105841,-0.10586 0.300802,-0.19252 0.433142,-0.19252 0.13244,0 0.32727,0.0866 0.43314,0.19252 0.10585,0.10586 0.19252,0.30079 0.19252,0.43314 0,0.13236 -0.0866,0.32726 -0.19252,0.43314 -0.10584,0.10586 -0.30079,0.19252 -0.43314,0.19252 -0.13241,0 -0.327265,-0.0866 -0.433142,-0.19252 z m 1.410602,0.0165 c -0.37708,-0.41667 -0.0623,-1.12185 0.47238,-1.05842 0.33581,0.0399 0.6638,0.4623 0.57534,0.74104 -0.15509,0.48858 -0.73406,0.66397 -1.04772,0.31738 z m -11.851761,-0.72481 c -0.259333,-0.18964 -0.236666,-0.71867 0.0404,-0.94303 0.120511,-0.0976 0.296248,-0.17751 0.390398,-0.17751 0.09406,0 0.269835,0.0799 0.390399,0.17751 0.247284,0.20024 0.296797,0.68129 0.0951,0.92428 -0.153061,0.18434 -0.675212,0.19505 -0.916311,0.0186 z m 9.420629,-1.02429 c 0.02727,-0.0794 0.222903,-0.75078 0.434679,-1.49193 0.211774,-0.74115 0.62512,-2.05369 0.918573,-2.91674 0.29346,-0.86306 0.53356,-1.59138 0.53356,-1.61849 0,-0.0404 -4.291651,-2.15438 -4.373582,-2.15438 -0.01351,0 -0.05248,0.40065 -0.08606,0.89034 -0.109746,1.60126 -0.31002,1.92617 -1.556193,2.52494 -1.094055,0.52569 -4.702184,1.68615 -5.242598,1.68615 -0.147932,0 1.950119,-1.58696 3.78734,-2.86482 l 1.047341,-0.72845 -0.06869,-1.98373 c -0.06033,-1.74375 -0.04891,-2.03296 0.09425,-2.39075 0.187976,-0.46984 0.636114,-0.88758 0.952135,-0.88758 0.555142,0 2.009397,0.66127 3.280312,1.49161 1.804635,1.17904 3.922785,3.04985 4.056565,3.58288 0.20853,0.83081 -1.11316,3.43198 -3.061836,6.02592 -0.704051,0.9372 -0.782433,1.02863 -0.715845,0.83503 z m -10.234149,-0.25364 c -0.245327,-0.31189 -0.25204,-0.52643 -0.02523,-0.80654 0.364357,-0.44995 1.077048,-0.15616 1.077048,0.44397 0,0.58782 -0.688063,0.825 -1.051803,0.36257 z m -0.777015,-1.19011 c -0.105841,-0.10586 -0.192514,-0.30079 -0.192514,-0.43313 0,-0.13236 0.08659,-0.32727 0.192514,-0.43315 0.105841,-0.10586 0.300801,-0.19251 0.433144,-0.19251 0.132438,0 0.32727,0.0866 0.433143,0.19251 0.10584,0.10586 0.192514,0.30079 0.192514,0.43315 0,0.13235 -0.08659,0.32726 -0.192514,0.43313 -0.105841,0.10586 -0.300783,0.19252 -0.433143,0.19252 -0.132416,0 -0.327253,-0.0866 -0.433144,-0.19252 z m -0.770023,-1.15503 c -0.379458,-0.37946 -0.117936,-1.15505 0.389391,-1.15505 0.256061,0 0.669401,0.41605 0.669401,0.67378 0,0.25774 -0.41334,0.67378 -0.669401,0.67378 -0.108225,0 -0.283502,-0.0866 -0.389391,-0.19252 z m 26.084709,-4.04265 v -2.8876 h 1.01067 1.01066 v 2.8876 2.8876 h -1.01066 -1.01067 z m 2.502588,0.82177 v -2.07306 h 0.81815 c 0.80853,0 0.81816,0.003 0.81816,0.24063 0,0.30466 0.051,0.30036 0.56455,-0.0476 0.95103,-0.64447 2.0525,-0.47655 2.56005,0.39028 0.16651,0.28449 0.18929,0.5106 0.19252,1.91501 l 0.003,1.59245 -0.89036,0.0277 -0.89034,0.0277 v -1.24864 c 0,-1.21525 -0.0849,-1.71059 -0.31884,-1.85932 -0.22265,-0.14156 -0.61287,-0.0727 -0.81658,0.14413 -0.18757,0.19967 -0.20887,0.34251 -0.23334,1.56412 l -0.0269,1.34438 -0.89034,0.0277 -0.89035,0.0277 z m 5.19769,-0.82177 v -2.8876 h 0.9144 0.91442 v 2.8876 2.8876 h -0.91442 -0.9144 z m 2.13976,0.79409 0.0259,-2.09351 h 0.86627 0.86628 l 0.0259,2.09351 0.0259,2.09351 h -0.91815 -0.91817 z m 2.19164,0.0277 v -2.07306 h 0.81814 c 0.80855,0 0.81817,0.003 0.81817,0.24063 0,0.30467 0.0511,0.30036 0.56456,-0.0476 0.95103,-0.64447 2.0525,-0.47655 2.56005,0.39028 0.16651,0.28449 0.18929,0.5106 0.19248,1.91502 l 0.003,1.59244 -0.89033,0.0277 -0.89033,0.0277 v -1.24864 c 0,-1.21525 -0.0849,-1.7106 -0.31887,-1.85933 -0.22266,-0.14156 -0.61288,-0.0727 -0.81656,0.14413 -0.1876,0.19967 -0.2089,0.34252 -0.23336,1.56413 l -0.0267,1.34438 -0.89035,0.0277 -0.89032,0.0277 z m 6.88013,1.89861 c -0.92037,-0.32998 -1.37974,-0.83198 -1.5392,-1.68201 -0.0944,-0.50336 0.16615,-1.30946 0.55086,-1.70349 0.54017,-0.55338 1.04493,-0.7246 2.14538,-0.72778 0.85592,-0.002 1.02161,0.0262 1.49584,0.25914 0.76488,0.37565 1.24738,1.13536 1.24738,1.96402 v 0.32478 h -1.78068 c -1.51868,0 -1.7807,0.0212 -1.7807,0.14437 0,0.0794 0.0866,0.23101 0.19252,0.33689 0.23331,0.23332 0.92908,0.26278 1.20884,0.0512 0.28772,-0.21764 1.96751,-0.15716 1.96751,0.0709 0,0.16034 -0.67134,0.74028 -1.04456,0.90234 -0.55101,0.23926 -2.06757,0.27324 -2.6632,0.0597 z m 2.02156,-2.33253 c 0.0981,-0.15872 -0.22984,-0.67067 -0.46793,-0.73042 -0.43471,-0.1091 -0.85095,-0.005 -1.04999,0.26288 -0.32798,0.44131 -0.1802,0.56097 0.69283,0.56097 0.42204,0 0.79336,-0.0421 0.82509,-0.0934 z m -47.532555,0.68744 c -0.211432,-0.23363 -0.202604,-0.71748 0.0171,-0.91598 0.385796,-0.34913 1.003079,-0.0622 1.003079,0.46635 0,0.5366 -0.672692,0.83319 -1.0198,0.44963 z m 1.428025,0.0429 c -0.122221,-0.0894 -0.182023,-0.25109 -0.182023,-0.49254 0,-0.40926 0.214282,-0.62565 0.619497,-0.62565 0.32906,0 0.57406,0.27415 0.57406,0.64237 0,0.51835 -0.580143,0.79125 -1.011534,0.47582 z m 1.353868,-0.0808 c -0.326589,-0.46627 -0.06459,-1.03737 0.475803,-1.03737 0.227731,0 0.371139,0.0645 0.475821,0.21391 0.326588,0.46627 0.06459,1.03737 -0.475821,1.03737 -0.22773,0 -0.371122,-0.0644 -0.475803,-0.21391 z m 1.443808,0 c -0.33968,-0.48495 -0.07245,-1.03737 0.501998,-1.03737 0.536887,0 0.794792,0.67095 0.406948,1.05879 -0.261581,0.26159 -0.718266,0.25083 -0.908946,-0.0214 z m -11.829731,-0.73213 c -0.216074,-0.23876 -0.200621,-0.64891 0.03325,-0.88276 0.259829,-0.25983 0.536581,-0.2422 0.831757,0.053 0.191754,0.19177 0.231228,0.30221 0.180398,0.50478 -0.03578,0.14264 -0.110295,0.31371 -0.165326,0.38018 -0.150655,0.18158 -0.696703,0.14734 -0.879974,-0.0552 z m 9.85817,-2.48509 c 0.26017,-0.89219 0.700353,-2.29004 0.978179,-3.10633 0.414942,-1.21909 0.479504,-1.4927 0.361526,-1.53202 -0.0791,-0.0263 -0.991096,-0.46906 -2.02688,-0.98385 l -1.883241,-0.93597 -0.120153,0.83169 c -0.135499,0.93773 -0.394764,1.60929 -0.70814,1.83453 -0.673986,0.48442 -1.941717,1.0528 -3.297955,1.47864 -1.207208,0.37904 -3.045658,0.85767 -3.097027,0.80631 -0.05676,-0.0567 2.206266,-1.76694 3.712963,-2.80603 l 1.097194,-0.75669 -0.0658,-1.99403 c -0.0738,-2.23892 -0.01541,-2.56103 0.549962,-3.03683 0.271367,-0.22833 0.355391,-0.24725 0.902812,-0.20332 1.354958,0.10877 3.872916,1.7121 6.01191,3.82815 1.083061,1.07145 1.178797,1.30474 0.902826,2.19994 -0.346525,1.12407 -1.460951,3.02157 -2.824277,4.80884 -1.028457,1.34826 -1.016406,1.35883 -0.493886,-0.43304 z m -10.57357,1.35624 c -0.314269,-0.22013 -0.301242,-0.84731 0.02206,-1.0591 0.422797,-0.27702 0.919123,0.0387 0.919123,0.5847 0,0.33529 -0.267312,0.62423 -0.577522,0.62423 -0.08232,0 -0.245941,-0.0674 -0.363599,-0.14983 z m -0.887698,-1.29397 c -0.397121,-0.39712 -0.0998,-1.05879 0.475808,-1.05879 0.318907,0 0.582989,0.29311 0.582989,0.64707 0,0.29011 -0.325256,0.60423 -0.625656,0.60423 -0.132354,0 -0.327262,-0.0866 -0.433141,-0.19252 z m 45.624163,-0.33687 v -0.5294 h 0.91442 0.9144 v 0.5294 0.52939 h -0.9144 -0.91442 z m -46.427399,-0.89795 c -0.344389,-0.38055 -0.05391,-1.07528 0.449572,-1.07528 0.267725,0 0.642425,0.37007 0.642425,0.6345 0,0.10392 -0.06744,0.28522 -0.149832,0.40287 -0.188904,0.26969 -0.713303,0.29079 -0.942158,0.0379 z M 83.899816,123.887 c -1.295203,-0.15099 -3.059907,-0.45964 -4.283288,-0.74917 l -0.866289,-0.20501 1.395678,-0.2223 c 3.13665,-0.49961 5.324495,-0.73597 6.902795,-0.74574 1.46456,-0.009 1.57321,0.003 1.76388,0.19276 0.11179,0.11133 0.22568,0.37123 0.25322,0.57753 0.0687,0.51485 -0.20827,0.85248 -0.86394,1.05332 -0.68796,0.21071 -2.9045,0.26152 -4.302056,0.0986 z m 6.687606,-1.05558 c -0.56979,-0.17826 -0.89143,-0.42122 -1.1566,-0.87369 -0.48488,-0.82741 -0.39762,-1.7869 0.22532,-2.47725 0.43343,-0.48035 0.82136,-0.65361 1.46342,-0.65361 0.91224,0 1.70901,0.64251 1.92781,1.55457 0.35294,1.4712 -1.0673,2.88568 -2.45995,2.44998 z m -35.142209,-3.96927 c -0.159563,-0.0355 -0.217406,-0.14192 -0.264696,-0.48693 -0.09843,-0.71825 -0.120659,-0.69059 0.508761,-0.63352 0.523366,0.0474 0.590088,0.0308 0.827372,-0.20647 0.323198,-0.32319 0.317353,-0.34748 -0.491806,-2.04246 -0.782727,-1.63961 -1.097348,-2.34294 -1.097348,-2.45308 0,-0.0464 0.411486,-0.0843 0.914404,-0.0843 0.502929,0 0.914414,0.012 0.914414,0.027 0,0.14806 0.8681,2.52397 0.929181,2.5431 0.04481,0.0139 0.230749,-0.46103 0.413192,-1.05569 0.507051,-1.65272 0.387908,-1.51435 1.304005,-1.51435 0.432666,0 0.811036,0.0244 0.840825,0.0541 0.02981,0.0298 -0.225845,0.73365 -0.568081,1.56412 -0.342235,0.83048 -0.750128,1.83482 -0.90642,2.23186 -0.70046,1.77941 -0.996611,2.04791 -2.295346,2.08102 -0.45335,0.0116 -0.916155,5.8e-4 -1.028457,-0.0244 z m -31.006028,-0.0972 c -0.09239,-0.0387 -0.120301,-0.70773 -0.120301,-2.88185 v -2.83146 h 0.866281 0.86628 v 0.25237 c 0,0.24476 0.0065,0.24757 0.216583,0.093 0.119118,-0.0876 0.407125,-0.24939 0.640027,-0.35949 0.82386,-0.38947 1.847054,-0.0364 2.316823,0.79942 0.270673,0.48159 0.371857,1.51961 0.199121,2.04293 -0.358859,1.08737 -1.606024,1.60568 -2.685227,1.11598 -0.230779,-0.10472 -0.45666,-0.1904 -0.501969,-0.1904 -0.0453,0 -0.09472,0.44397 -0.10983,0.9866 l -0.02742,0.98659 -0.770026,0.0184 c -0.423519,0.0101 -0.824174,-0.004 -0.890349,-0.0321 z m 3.026643,-2.94602 c 0.659781,-0.7266 0.06309,-1.91868 -0.787128,-1.5725 -0.563341,0.22936 -0.706574,0.98814 -0.281825,1.49292 0.311812,0.37057 0.773511,0.40494 1.068953,0.0796 z m -13.207929,1.2513 c -0.02453,-0.0662 -0.05562,-1.07323 -0.06918,-2.2379 l -0.02459,-2.11757 -0.986601,-0.0275 -0.986598,-0.0274 v -0.67041 -0.67041 h 3.080112 3.080114 v 0.67377 0.67378 h -0.906539 c -0.498595,0 -0.975051,0.0263 -1.058788,0.0584 -0.132692,0.0509 -0.15226,0.34141 -0.15226,2.26196 v 2.20353 h -0.965556 c -0.684509,0 -0.978526,-0.035 -1.010117,-0.1203 z m 5.89676,-0.0464 c -1.948683,-0.72318 -2.131323,-3.03244 -0.316669,-4.00394 0.541575,-0.28994 2.311894,-0.30608 2.875414,-0.0262 0.8713,0.43272 1.254218,1.10204 1.200972,2.09925 -0.0453,0.84863 -0.379057,1.34963 -1.167749,1.75299 -0.713959,0.36513 -1.873102,0.4447 -2.591968,0.17791 z m 1.632838,-1.13297 c 0.453232,-0.31746 0.513525,-1.21652 0.115529,-1.7225 -0.271896,-0.34566 -0.916777,-0.35572 -1.232889,-0.0192 -0.420816,0.44794 -0.353365,1.41286 0.122053,1.74585 0.2594,0.18169 0.732837,0.17973 0.995328,-0.004 z m 9.868163,1.1583 c -1.124946,-0.35129 -1.741431,-1.23456 -1.628099,-2.33266 0.07424,-0.71947 0.434781,-1.23595 1.128552,-1.6167 0.494626,-0.27145 0.5896,-0.28876 1.584941,-0.28876 0.9509,0 1.102465,0.0245 1.487434,0.24064 1.297179,0.72821 1.539771,2.36339 0.500088,3.37079 -0.72835,0.70573 -1.993536,0.96375 -3.072916,0.62669 z m 1.62219,-1.29498 c 0.241903,-0.2419 0.281358,-0.35467 0.281358,-0.8041 0,-0.69353 -0.284111,-1.03212 -0.866057,-1.03212 -0.607971,0 -0.866506,0.31205 -0.866506,1.04585 0,0.52206 0.02649,0.59563 0.296147,0.82254 0.401128,0.33752 0.796374,0.32652 1.155058,-0.0322 z m 2.495192,-1.45121 v -2.8876 h 0.914409 0.914407 v 2.8876 2.88761 h -0.914407 -0.914409 z m 3.687342,2.69412 c -1.014581,-0.33206 -1.505385,-0.98802 -1.511631,-2.02034 -0.008,-1.33009 0.794925,-2.10648 2.269034,-2.19392 1.475472,-0.0875 2.263881,0.16936 2.765193,0.90097 0.332093,0.48466 0.238065,0.58114 -0.632032,0.6485 -0.674891,0.0523 -0.769852,0.0386 -0.899303,-0.12975 -0.30594,-0.39777 -1.125449,-0.4004 -1.483496,-0.005 -0.225961,0.24969 -0.303389,0.89584 -0.15133,1.26294 0.141683,0.34204 0.532956,0.5748 0.96625,0.5748 0.216741,0 0.396939,-0.0937 0.632106,-0.32894 l 0.328933,-0.32893 0.716396,0.0684 c 0.394021,0.0376 0.743734,0.0958 0.777143,0.12917 0.202457,0.20245 -0.452896,1.03934 -1.054634,1.3467 -0.585007,0.2988 -1.926082,0.33581 -2.722629,0.0751 z m 5.001527,0.004 c -0.388446,-0.17633 -0.794919,-0.66238 -0.795719,-0.95147 -7.37e-4,-0.27918 0.328079,-0.80016 0.590854,-0.93604 0.15207,-0.0786 0.785117,-0.24687 1.40676,-0.37384 1.314267,-0.26843 1.467153,-0.31886 1.467153,-0.48387 0,-0.41392 -1.002161,-0.51556 -1.399821,-0.14198 -0.19813,0.18609 -0.307232,0.20606 -0.948969,0.17368 -0.398819,-0.0203 -0.769318,-0.0808 -0.823321,-0.1348 -0.183438,-0.18342 0.223249,-0.74621 0.726433,-1.00529 0.428127,-0.22045 0.572542,-0.24063 1.721208,-0.24063 1.06343,0 1.311398,0.0292 1.632665,0.19251 0.701921,0.35671 0.769335,0.53913 0.829464,2.24443 0.0293,0.8302 0.08805,1.58526 0.130622,1.6779 0.07048,0.15338 0.0032,0.16845 -0.753444,0.16845 -0.79441,0 -0.83479,-0.0103 -0.921005,-0.23715 l -0.09016,-0.23716 -0.412781,0.236 c -0.54218,0.30998 -1.730958,0.33481 -2.359929,0.0493 z m 2.121917,-0.78478 c 0.316574,-0.16188 0.542597,-0.48656 0.544991,-0.78283 0.0025,-0.31984 -0.06951,-0.32548 -0.896302,-0.0701 -0.448961,0.13867 -0.647948,0.25127 -0.692587,0.39191 -0.138454,0.43625 0.522007,0.72794 1.043898,0.46104 z m 2.857216,-1.09565 v -2.06945 h 0.86628 c 0.859866,0 0.866283,0.002 0.866283,0.24063 0,0.27845 0.112574,0.30874 0.301038,0.081 0.209507,-0.25317 0.86552,-0.50972 1.309259,-0.51203 0.607674,-0.003 1.141352,0.24817 1.395777,0.65731 0.201,0.32324 0.220974,0.48361 0.250431,2.01162 l 0.032,1.66037 h -0.922359 -0.922361 v -1.37426 c 0,-1.50128 -0.08796,-1.80211 -0.526976,-1.80211 -0.68325,0 -0.820571,0.32136 -0.820571,1.92029 v 1.25608 h -0.914407 -0.914405 z m 24.64202,1.58303 c -1.133941,-0.1081 -3.487784,-0.50361 -4.765674,-0.80076 -1.136564,-0.26428 -1.222001,-0.23021 1.588201,-0.63331 2.997065,-0.42991 4.551041,-0.59271 5.840895,-0.61192 1.054499,-0.0156 1.199727,0.003 1.44166,0.18342 0.320281,0.23913 0.427502,0.65981 0.282514,1.10841 -0.09355,0.28946 -0.176112,0.34984 -0.733416,0.53621 -0.757653,0.25339 -2.310827,0.34603 -3.65418,0.21796 z m 5.725972,-1.20446 c -0.679783,-0.35228 -1.203172,-1.15808 -1.203172,-1.85242 0,-0.70391 0.554494,-1.58075 1.190472,-1.88255 0.403113,-0.19129 1.206459,-0.2036 1.633875,-0.025 0.612919,0.25609 1.219398,1.20267 1.21776,1.90064 -0.0017,0.71735 -0.584372,1.61289 -1.223606,1.88049 -0.416115,0.17421 -1.259651,0.16315 -1.615329,-0.0211 z"
       id="path189" />
  </g>
</svg>
