<?xml version="1.0" encoding="UTF-8" standalone="no"?>
<!-- Created with Inkscape (http://www.inkscape.org/) -->

<svg
   version="1.1"
   id="svg125"
   width="1382"
   height="809"
   viewBox="0 0 1382 809"
   sodipodi:docname="Topolcany Inline Logo.svg"
   inkscape:version="1.2.1 (9c6d41e410, 2022-07-14)"
   xmlns:inkscape="http://www.inkscape.org/namespaces/inkscape"
   xmlns:sodipodi="http://sodipodi.sourceforge.net/DTD/sodipodi-0.dtd"
   xmlns="http://www.w3.org/2000/svg"
   xmlns:svg="http://www.w3.org/2000/svg">
  <defs
     id="defs129" />
  <sodipodi:namedview
     id="namedview127"
     pagecolor="#ffffff"
     bordercolor="#000000"
     borderopacity="0.25"
     inkscape:showpageshadow="2"
     inkscape:pageopacity="0.0"
     inkscape:pagecheckerboard="0"
     inkscape:deskcolor="#d1d1d1"
     showgrid="true"
     inkscape:zoom="0.9592089"
     inkscape:cx="502.49742"
     inkscape:cy="401.89369"
     inkscape:window-width="1920"
     inkscape:window-height="1046"
     inkscape:window-x="-11"
     inkscape:window-y="-11"
     inkscape:window-maximized="1"
     inkscape:current-layer="g131">
    <inkscape:grid
       type="xygrid"
       id="grid57" />
  </sodipodi:namedview>
  <g
     inkscape:groupmode="layer"
     inkscape:label="Image"
     id="g131">
    <path
       style="fill:#ffffff"
       d="m 827.47594,564.53525 c -1.13992,-1.44917 -2.07258,-3.18848 -2.07258,-3.86514 0,-2.27691 4.12569,-6.5 6.35007,-6.5 3.78599,0 6.64993,2.75704 6.64993,6.40172 0,6.41108 -7.00386,8.95141 -10.92742,3.96342 z m 14.92742,0.63486 c -1.1,-1.1 -2,-3.125 -2,-4.5 0,-1.375 0.9,-3.4 2,-4.5 5.78433,-5.78433 14.17809,2.01763 9.4433,8.77749 -1.9811,2.82842 -6.7256,2.94021 -9.4433,0.22251 z m 15,0 c -1.1,-1.1 -2,-3.125 -2,-4.5 0,-1.375 0.9,-3.4 2,-4.5 1.1,-1.1 3.125,-2 4.5,-2 1.375,0 3.4,0.9 4.5,2 1.1,1.1 2,3.125 2,4.5 0,1.375 -0.9,3.4 -2,4.5 -1.1,1.1 -3.125,2 -4.5,2 -1.375,0 -3.4,-0.9 -4.5,-2 z m 14.65499,0.17126 c -3.91758,-4.32888 -0.6478,-11.65519 4.90768,-10.99622 3.48874,0.41383 6.89646,4.803 5.97735,7.69887 -1.61104,5.07592 -7.62638,6.89812 -10.88503,3.29735 z m -123.13053,-7.52971 c -2.69435,-1.97016 -2.45893,-7.46645 0.41966,-9.79738 1.2526,-1.01429 3.07774,-1.84417 4.05588,-1.84417 0.97814,0 2.80328,0.82988 4.05588,1.84417 2.56903,2.08027 3.08343,7.07811 0.98834,9.60255 -1.58963,1.91539 -7.0149,2.02642 -9.51976,0.19483 z m 97.87294,-10.64155 c 0.28374,-0.825 2.31595,-7.8 4.51601,-15.5 2.20007,-7.7 6.49457,-21.33623 9.54335,-30.30272 3.04878,-8.9665 5.54324,-16.53321 5.54324,-16.8149 0,-0.41927 -44.58702,-22.38238 -45.43816,-22.38238 -0.14311,0 -0.54552,4.1625 -0.89425,9.25 -1.14034,16.63592 -3.22078,20.01146 -16.16759,26.23225 -11.36651,5.46147 -48.85214,17.51775 -54.46653,17.51775 -1.53645,0 20.26005,-16.48732 39.34751,-29.76325 l 10.88099,-7.56807 -0.71289,-20.6094 c -0.62665,-18.11624 -0.50821,-21.12094 0.97908,-24.83806 1.9531,-4.88128 6.60875,-9.22122 9.89201,-9.22122 5.76753,0 20.87596,6.87005 34.07983,15.49665 18.74883,12.24933 40.75467,31.68554 42.14456,37.22331 2.16637,8.63148 -11.56481,35.6556 -31.80997,62.60472 -7.3146,9.73674 -8.12895,10.68666 -7.43719,8.67532 z m -106.32482,-2.63486 c -2.54886,-3.24035 -2.61859,-5.46928 -0.26215,-8.37936 3.78527,-4.67461 11.18957,-1.62246 11.18957,4.6125 0,6.10698 -7.14838,8.57114 -10.92742,3.76686 z m -8.07258,-12.36514 c -1.1,-1.1 -2,-3.125 -2,-4.5 0,-1.375 0.9,-3.4 2,-4.5 1.1,-1.1 3.125,-2 4.5,-2 1.375,0 3.4,0.9 4.5,2 1.1,1.1 2,3.125 2,4.5 0,1.375 -0.9,3.4 -2,4.5 -1.1,1.1 -3.125,2 -4.5,2 -1.375,0 -3.4,-0.9 -4.5,-2 z m -8,-12 c -3.94226,-3.94226 -1.22582,-12 4.04545,-12 2.66028,0 6.95455,4.32234 6.95455,7 0,2.67766 -4.29427,7 -6.95455,7 -1.125,0 -2.94545,-0.9 -4.04545,-2 z m 271,-42 v -30 h 10.50004 10.5 v 30 30 h -10.5 -10.50004 z m 26.00004,8.53753 v -21.53753 h 8.5 c 8.4,0 8.5,0.0294 8.5,2.5 0,3.16525 0.5306,3.12051 5.8652,-0.49449 9.8805,-6.69558 21.3238,-4.95101 26.5969,4.05476 1.7305,2.95552 1.9667,5.30464 2,19.89547 l 0.038,16.54426 -9.25,0.28753 -9.2499,0.28752 v -12.97242 c 0,-12.62555 -0.8825,-17.7718 -3.3126,-19.31697 -2.3131,-1.4708 -6.3673,-0.75527 -8.4835,1.49725 -1.9488,2.07442 -2.1702,3.55846 -2.4243,16.25 l -0.2798,13.96709 -9.25,0.28753 -9.25,0.28752 z m 53.9999,-8.53753 v -30 h 9.5 9.5 v 30 30 h -9.5 -9.5 z m 22.2305,8.25 0.2695,-21.75 h 9 9 l 0.2695,21.75 0.2695,21.75 h -9.539 -9.539 z m 22.7695,0.28753 v -21.53753 h 8.5 c 8.4,0 8.5,0.0294 8.5,2.5 0,3.16525 0.5306,3.12051 5.8652,-0.49449 9.8805,-6.69558 21.3239,-4.95101 26.597,4.05476 1.7305,2.95552 1.9667,5.30464 2,19.89547 l 0.038,16.54426 -9.25,0.28753 -9.25,0.28752 v -12.97242 c 0,-12.62555 -0.8825,-17.7718 -3.3126,-19.31697 -2.3131,-1.4708 -6.3673,-0.75527 -8.4835,1.49725 -1.9488,2.07442 -2.1702,3.55846 -2.4243,16.25 l -0.2798,13.96709 -9.25,0.28753 -9.25,0.28752 z m 71.4791,19.72506 c -9.5618,-3.42818 -14.3343,-8.64357 -15.9911,-17.47478 -0.9811,-5.22954 1.7272,-13.60427 5.7232,-17.69794 5.6121,-5.74917 10.856,-7.52806 22.2888,-7.56103 8.8924,-0.0256 10.6137,0.27256 15.5406,2.69224 7.9465,3.90271 12.9594,11.79551 12.9594,20.40465 v 3.37427 h -18.5 c -15.7778,0 -18.5,0.22072 -18.5,1.5 0,0.825 0.9,2.4 2,3.5 2.424,2.42401 9.6525,2.7301 12.5589,0.5318 2.9893,-2.26104 20.4411,-1.63263 20.4411,0.73605 0,1.66594 -6.9747,7.69096 -10.8523,9.37467 -5.7245,2.48566 -21.4803,2.83876 -27.6686,0.62007 z m 21.0027,-24.23322 c 1.0192,-1.64909 -2.3882,-6.96778 -4.8616,-7.58856 -4.5163,-1.13352 -8.8407,-0.0508 -10.9083,2.73111 -3.4076,4.58498 -1.8724,5.82808 7.1977,5.82808 4.3848,0 8.2423,-0.43678 8.5722,-0.97063 z m -493.82675,7.14189 c -2.19667,-2.42729 -2.10488,-7.45414 0.17375,-9.51627 4.00806,-3.62725 10.42126,-0.64565 10.42126,4.84501 0,5.5748 -6.98878,8.6561 -10.59501,4.67126 z m 14.83614,0.44591 c -1.27036,-0.92891 -1.89113,-2.60863 -1.89113,-5.11717 0,-4.25183 2.22608,-6.5 6.43614,-6.5 3.41858,0 5.96386,2.84826 5.96386,6.67375 0,5.38525 -6.02722,8.22048 -10.50887,4.94342 z m 14.06557,-0.83968 c -3.39301,-4.8442 -0.67159,-10.77749 4.9433,-10.77749 2.36599,0 3.85573,0.66979 4.9433,2.22251 3.39301,4.8442 0.67159,10.77749 -4.9433,10.77749 -2.36599,0 -3.85573,-0.66979 -4.9433,-2.22251 z m 15,0 c -3.52894,-5.03827 -0.75168,-10.77749 5.21534,-10.77749 5.578,0 8.25726,6.9707 4.22796,11 -2.7177,2.7177 -7.4622,2.60591 -9.4433,-0.22251 z m -122.90171,-7.60623 c -2.24487,-2.48056 -2.08458,-6.74167 0.34501,-9.17126 2.69938,-2.69938 5.57464,-2.51627 8.64123,0.55032 1.99232,1.99232 2.40238,3.13979 1.87415,5.24441 -0.37189,1.48174 -1.14509,3.2591 -1.71822,3.94968 -1.56563,1.88646 -7.23809,1.53084 -9.14217,-0.57315 z m 102.41878,-25.81821 c 2.70293,-9.26918 7.27608,-23.79172 10.16255,-32.27231 4.31087,-12.66551 4.98164,-15.50807 3.75591,-15.91656 -0.82073,-0.27351 -10.2967,-4.87314 -21.05771,-10.22139 l -19.56548,-9.72408 -1.24885,8.64064 c -1.40808,9.74231 -4.10126,16.71933 -7.35707,19.0594 -7.0022,5.03272 -20.17284,10.93776 -34.26312,15.36183 -12.54199,3.93793 -31.64212,8.91063 -32.17582,8.37694 -0.58915,-0.58916 22.92152,-18.35703 38.57489,-29.15243 l 11.39906,-7.86142 -0.68315,-20.71642 c -0.76704,-23.26065 -0.16101,-26.60712 5.71367,-31.55034 2.81923,-2.37223 3.6921,-2.5688 9.37947,-2.11227 14.07702,1.12997 40.23657,17.78737 62.45901,39.7715 11.2523,11.13163 12.24696,13.55532 9.37976,22.85572 -3.60022,11.67818 -15.17826,31.39179 -29.34218,49.96015 -10.68483,14.00739 -10.55952,14.11726 -5.13094,-4.49896 z m -109.85126,14.09025 c -3.26501,-2.2869 -3.12968,-8.80279 0.22853,-11.00318 4.39252,-2.87809 9.54896,0.4022 9.54896,6.0746 0,3.4834 -2.77726,6.48528 -6,6.48528 -0.85524,0 -2.55512,-0.70052 -3.77749,-1.5567 z m -9.22251,-13.4433 c -4.1258,-4.1258 -1.0366,-11 4.9433,-11 3.31316,0 6.0567,3.04513 6.0567,6.72251 0,3.01409 -3.37907,6.27749 -6.5,6.27749 -1.375,0 -3.4,-0.9 -4.5,-2 z m 473.99994,-3.5 v -5.5 h 9.5 9.5 v 5.5 5.5 h -9.5 -9.5 z m -482.34495,-9.32874 c -3.57791,-3.95354 -0.56018,-11.17126 4.6707,-11.17126 2.78149,0 6.67431,3.84478 6.67431,6.59194 0,1.07968 -0.70052,2.96318 -1.5567,4.18555 -1.96251,2.80187 -7.41066,3.02104 -9.78831,0.39377 z m 235.34501,-26.60038 c -13.45607,-1.56866 -31.78997,-4.77536 -44.5,-7.78329 l -9,-2.12992 14.5,-2.30955 c 32.58741,-5.19051 55.31737,-7.64614 71.71454,-7.7477 15.21574,-0.0942 16.34457,0.0291 18.32547,2.00283 1.16102,1.15679 2.34482,3.85679 2.63068,6 0.71343,5.34896 -2.16355,8.8566 -8.97563,10.94317 -7.14736,2.18926 -30.17558,2.71709 -44.69506,1.02446 z m 69.47905,-10.96666 c -5.91952,-1.85193 -9.26112,-4.37622 -12.016,-9.07705 -5.03768,-8.59616 -4.13106,-18.56452 2.34076,-25.73672 4.5031,-4.99042 8.53338,-6.79045 15.20391,-6.79045 9.47741,0 17.75529,6.67519 20.02843,16.1507 3.66674,15.28466 -11.08844,29.98003 -25.5571,25.45352 z M 554.78206,364.53668 c -1.65775,-0.36881 -2.25868,-1.47427 -2.75,-5.05883 -1.02278,-7.46203 -1.2535,-7.17474 5.28563,-6.58179 5.43736,0.49304 6.13059,0.32004 8.59578,-2.14515 3.35776,-3.35777 3.29702,-3.61002 -5.10952,-21.2196 -8.13193,-17.03434 -11.40059,-24.34132 -11.40059,-25.48563 0,-0.48156 4.275,-0.87557 9.5,-0.87557 5.225,0 9.5,0.12596 9.5,0.2799 0,1.53819 9.01886,26.22211 9.65349,26.42086 0.46558,0.14581 2.39732,-4.78972 4.29276,-10.96783 5.26788,-17.17047 4.03002,-15.73293 13.5476,-15.73293 4.49505,0 8.42603,0.25322 8.73552,0.5627 0.30948,0.30949 -2.34639,7.62199 -5.90194,16.25 -3.55556,8.62802 -7.79321,19.0623 -9.417,23.1873 -7.27724,18.48669 -10.35405,21.27621 -23.84687,21.62019 -4.70996,0.12007 -9.51814,0.006 -10.68486,-0.25362 z m -322.1287,-1.0097 c -0.95981,-0.402 -1.25,-7.35275 -1.25,-29.9402 v -29.41667 h 9 9 v 2.62197 c 0,2.54281 0.0679,2.572 2.25,0.9669 1.2375,-0.91029 4.22972,-2.59098 6.64939,-3.73485 8.55926,-4.04631 19.1895,-0.37837 24.07,8.30531 2.81207,5.0034 3.86329,15.78761 2.06892,21.22459 -3.72829,11.29683 -16.68537,16.68175 -27.89751,11.59412 -2.39757,-1.08792 -4.74432,-1.97804 -5.21502,-1.97804 -0.4707,0 -0.98406,4.6125 -1.1408,10.25 l -0.28498,10.25 -8,0.1902 c -4.4,0.10461 -8.5625,-0.0454 -9.25,-0.33333 z m 31.44445,-30.60687 c 6.85463,-7.54888 0.65539,-19.9336 -8.17763,-16.3371 -5.85267,2.38301 -7.34077,10.26601 -2.92793,15.51037 3.23948,3.8499 8.03618,4.20698 11.10556,0.82673 z m -137.2202,13 c -0.25464,-0.6875 -0.57801,-11.15 -0.71862,-23.25 l -0.25564,-22 -10.25,-0.28498 -10.25,-0.28499 v -6.96501 -6.96502 h 32 32.00001 v 7 7 h -9.41822 c -5.18002,0 -10.13002,0.27314 -11,0.60699 -1.37865,0.52903 -1.58179,3.54706 -1.58179,23.5 v 22.89301 h -10.03138 c -7.11153,0 -10.16615,-0.36384 -10.49436,-1.25 z m 61.26282,-0.48242 c -20.24534,-7.51327 -22.14282,-31.5047 -3.28998,-41.59781 5.62658,-3.01226 24.01883,-3.17997 29.87336,-0.2724 9.05213,4.49562 13.03033,11.44932 12.47715,21.80953 -0.47077,8.81667 -3.93807,14.02168 -12.13202,18.21222 -7.41746,3.79344 -19.46007,4.62008 -26.92851,1.84846 z m 16.9639,-11.77068 c 4.70873,-3.29813 5.33516,-12.63866 1.20017,-17.89545 -2.82477,-3.59111 -9.52462,-3.69559 -12.8088,-0.19974 -4.37195,4.65373 -3.67114,14.67862 1.26798,18.13812 2.69493,1.8876 7.61358,1.86718 10.34065,-0.0429 z m 102.52261,12.03391 c -11.68732,-3.64962 -18.09216,-12.82618 -16.9147,-24.23461 0.77146,-7.47475 4.51707,-12.84046 11.72482,-16.7962 5.13873,-2.82022 6.12548,-3 16.4663,-3 9.87912,0 11.45378,0.25475 15.4533,2.5 13.47665,7.56553 15.99702,24.5539 5.19552,35.01993 -7.567,7.33199 -20.71132,10.01266 -31.92524,6.51088 z m 16.85334,-13.45389 c 2.51313,-2.51313 2.92308,-3.68473 2.92308,-8.35397 0,-7.20527 -2.95171,-10.72295 -8.99771,-10.72295 -6.3163,0 -9.00229,3.24196 -9.00229,10.86565 0,5.42378 0.2752,6.18812 3.07673,8.54546 4.16742,3.50665 8.27371,3.3923 12.00019,-0.33419 z m 25.92308,-15.07692 v -30 h 9.5 9.5 v 30 30 h -9.5 -9.5 z m 38.30866,27.98977 c -10.54077,-3.44977 -15.6398,-10.26477 -15.70469,-20.98977 -0.0836,-13.8185 8.25868,-21.88464 23.57349,-22.79314 15.32901,-0.90933 23.51998,1.75951 28.72823,9.36045 3.4502,5.03525 2.47333,6.03757 -6.56632,6.73742 -7.01163,0.54284 -7.99814,0.4005 -9.34304,-1.34806 -3.17849,-4.1325 -11.69256,-4.15979 -15.41241,-0.0494 -2.3476,2.59407 -3.15198,9.3071 -1.5722,13.12102 1.4719,3.55348 5.53702,5.97171 10.03862,5.97171 2.25178,0 4.12387,-0.97421 6.56706,-3.4174 l 3.4174,-3.4174 7.4428,0.71094 c 4.09354,0.39101 7.7268,0.99493 8.07391,1.34203 2.10355,2.10355 -4.70528,10.79797 -10.95683,13.99115 -6.07778,3.10442 -20.01053,3.48884 -28.28602,0.78045 z m 51.962,0.0464 c -4.03562,-1.83196 -8.2586,-6.88152 -8.26692,-9.88505 -0.008,-2.90044 3.4085,-8.31295 6.13853,-9.7247 1.57992,-0.81701 8.15674,-2.56475 14.61516,-3.88387 13.65423,-2.78883 15.24257,-3.31268 15.24257,-5.02709 0,-4.30029 -10.41165,-5.35627 -14.54307,-1.475 -2.05816,1.93354 -3.19188,2.14103 -9.85906,1.80435 -4.14342,-0.20923 -7.99257,-0.83951 -8.55367,-1.40061 -1.90558,-1.90558 2.31947,-7.7525 7.54709,-10.4442 4.44795,-2.29024 5.94829,-2.5 17.88202,-2.5 11.0482,0 13.62441,0.30376 16.96216,2 7.29239,3.70599 7.99279,5.60119 8.61749,23.31787 0.30412,8.62517 0.91477,16.46963 1.35699,17.43213 0.73217,1.59361 0.0326,1.75 -7.82771,1.75 -8.25331,0 -8.67281,-0.10802 -9.56851,-2.46388 l -0.93676,-2.46388 -4.28849,2.45183 c -5.63286,3.22046 -17.98333,3.47842 -24.51782,0.51211 z m 22.04508,-8.15322 c 3.28892,-1.68197 5.63714,-5.05496 5.66202,-8.13296 0.0269,-3.32295 -0.72231,-3.38157 -9.31185,-0.72853 -4.66439,1.44068 -6.73172,2.61051 -7.19547,4.07166 -1.43847,4.53222 5.42324,7.5627 10.8453,4.78983 z m 29.68426,-11.38295 v -21.5 h 9 c 8.93333,0 9,0.0185 9,2.5 0,2.89283 1.16961,3.20753 3.12756,0.84152 2.17659,-2.63022 8.99207,-5.29562 13.6022,-5.31956 6.31326,-0.0328 11.85776,2.57828 14.50104,6.82894 2.08829,3.35818 2.29572,5.02434 2.6018,20.8991 l 0.33261,17.25 h -9.58261 -9.5826 v -14.27749 c 0,-15.59713 -0.91394,-18.72251 -5.47492,-18.72251 -7.09842,0 -8.52508,3.33865 -8.52508,19.95034 v 13.04966 h -9.5 -9.5 z m 256.0116,16.44642 c -11.78078,-1.12315 -36.23534,-5.23212 -49.5116,-8.31918 -11.80818,-2.74569 -12.69569,-2.39178 16.5,-6.5797 31.13728,-4.46642 47.2819,-6.15778 60.6826,-6.3573 10.95535,-0.16311 12.46418,0.0288 14.97767,1.90544 3.3275,2.48434 4.44146,6.85489 2.93505,11.51554 -0.97199,3.0072 -1.82997,3.63448 -7.61965,5.57078 -7.87138,2.63251 -24.00766,3.59498 -37.96407,2.26442 z m 59.4884,-12.51338 c -7.06248,-3.65988 -12.5,-12.03156 -12.5,-19.24516 0,-7.31313 5.76075,-16.42287 12.36811,-19.55827 4.18812,-1.98739 12.5342,-2.1151 16.97471,-0.25973 6.36767,2.66058 12.66857,12.49478 12.6516,19.74614 -0.0174,7.45279 -6.07132,16.75668 -12.7123,19.53685 -4.32325,1.80988 -13.0869,1.69508 -16.78212,-0.21983 z"
       id="path189" />
  </g>
</svg>
